<?xml version="1.0" encoding="UTF-8" standalone="no"?>
<svg width="255px" height="323px" viewBox="0 0 255 323" version="1.1" xmlns="http://www.w3.org/2000/svg" xmlns:xlink="http://www.w3.org/1999/xlink">
    <!-- Generator: Sketch 39.1 (31720) - http://www.bohemiancoding.com/sketch -->
    <title>dr_stub</title>
    <desc>Created with Sketch.</desc>
    <defs>
        <rect id="path-1" x="0" y="0" width="235" height="303"></rect>
        <filter x="-50%" y="-50%" width="200%" height="200%" filterUnits="objectBoundingBox" id="filter-2">
            <feMorphology radius="1" operator="dilate" in="SourceAlpha" result="shadowSpreadOuter1"></feMorphology>
            <feOffset dx="0" dy="6" in="shadowSpreadOuter1" result="shadowOffsetOuter1"></feOffset>
            <feGaussianBlur stdDeviation="4" in="shadowOffsetOuter1" result="shadowBlurOuter1"></feGaussianBlur>
            <feColorMatrix values="0 0 0 0 0.462745098   0 0 0 0 0.525490196   0 0 0 0 0.57254902  0 0 0 0.2 0" type="matrix" in="shadowBlurOuter1"></feColorMatrix>
        </filter>
        <rect id="path-3" x="0" y="0" width="187" height="241"></rect>
        <path d="M0.733013736,14.6543937 C20.0096721,35.7075242 47.8507185,48.9300987 78.8103846,48.9300987 C106.623137,48.9300987 131.919036,38.258944 150.749854,20.8258937 L150.749854,0.651644737 L0.733013736,0.651644737 L0.733013736,14.6543937 L0.733013736,14.6543937 Z" id="path-5"></path>
        <path d="M0.0714187406,25.1032671 C2.29965091,26.2858177 4.57582173,27.3913286 6.89629922,28.4162036 L6.89630275,0.820230263 L0.0714346154,0.820230263 L0.0714346154,25.1032755 L0.0714187406,25.1032671 Z" id="path-7"></path>
        <path d="M0.205509341,30.9062711 C2.51999058,30.0540526 4.79604083,29.1235961 7.03038159,28.1181475 L7.03037747,0.820230263 L0.205509341,0.820230263 L0.205509341,30.9062711 L0.205509341,30.9062711 Z" id="path-9"></path>
        <path d="M0.0222020543,0.0269937051 C3.02008932,0.280829765 6.05380768,0.410361842 9.11807692,0.410361842 C12.1823471,0.410361842 15.2160664,0.280829687 18.2139545,0.0269934735 L0.0221993198,0.0269934735 L0.0222020543,0.0269937051 Z" id="path-11"></path>
        <path d="M0.0221993198,0.0269934735 C3.02008748,0.280829687 6.05380675,0.410361842 9.11807692,0.410361842 C12.1551127,0.410361842 15.1621381,0.28312195 18.1340127,0.0337321023 L18.1340127,0.0269934735 L0.0221993198,0.0269934735 L0.0221993198,0.0269934735 Z" id="path-13"></path>
        <polygon id="path-15" points="0.734575569 1.25253367 0.734575569 0.427079126 0.618315253 0.427079126 0.618315253 1.25253367 0.734575569 1.25253367"></polygon>
    </defs>
    <g id="myU" stroke="none" stroke-width="1" fill="none" fill-rule="evenodd">
        <g id="Large-Devices:-Desktops-landing-fixes-v2" transform="translate(-239.000000, -3146.000000)">
            <g id="users-testimonials" transform="translate(2.000000, 2992.000000)">
                <g id="testimonial" transform="translate(0.000000, 88.000000)">
                    <g id="review" transform="translate(217.000000, 38.000000)">
                        <g id="dr_stub" transform="translate(30.000000, 32.000000)">
                            <g id="Rectangle-15">
                                <use fill="black" fill-opacity="1" filter="url(#filter-2)" xlink:href="#path-1"></use>
                                <use fill="#FFFFFF" fill-rule="evenodd" xlink:href="#path-1"></use>
                            </g>
                            <rect id="Rectangle-6" fill="#00A687" x="0" y="0" width="235" height="7"></rect>
                            <g id="stub-dr" transform="translate(24.000000, 31.000000)">
                                <mask id="mask-4" fill="white">
                                    <use xlink:href="#path-3"></use>
                                </mask>
                                <use id="Mask" fill="#B6D1DF" xlink:href="#path-3"></use>
                                <g id="Page-1" mask="url(#mask-4)">
                                    <g transform="translate(16.000000, 37.000000)">
                                        <g id="Group-30" transform="translate(0.000000, 144.000000)">
                                            <g id="Group-5" transform="translate(0.000000, 33.717105)">
                                                <mask id="mask-6" fill="white">
                                                    <use xlink:href="#path-5"></use>
                                                </mask>
                                                <g id="Clip-4"></g>
                                                <path d="M113.43958,104.047204 C114.434354,95.1689145 117.729805,73.9633224 118.123898,71.4345395 L150.749854,58.0907895 C150.749854,58.0907895 139.699475,23.4501645 132.024195,17.5398026 C124.349745,11.6286184 92.0365742,0.651644737 92.0365742,0.651644737 L75.7410192,0.651644737 L59.446294,0.651644737 C59.446294,0.651644737 27.1331236,11.6286184 19.4586731,17.5398026 C11.7833929,23.4501645 0.733013736,58.0907895 0.733013736,58.0907895 L33.3199753,71.1828947 C33.3199753,71.1828947 36.9846291,94.5990132 38.0432885,104.047204 C39.1019478,113.495395 34.7453489,135.772533 34.7453489,135.772533 C34.7453489,135.772533 54.4226401,142.180428 75.5294533,142.265954 L75.5294533,142.270066 C75.5999753,142.270066 75.6704973,142.267599 75.7410192,142.267599 C75.8123709,142.267599 75.8828929,142.270066 75.9534148,142.270066 L75.9534148,142.265954 C97.060228,142.180428 116.737519,135.772533 116.737519,135.772533 C116.737519,135.772533 112.38092,113.495395 113.43958,104.047204" id="Fill-3" fill="#F2ECEC" mask="url(#mask-6)"></path>
                                            </g>
                                            <path d="M92.036906,34.36875 C76.2059665,23.7947368 82.5504555,0.0990131579 82.5504555,0.0990131579 L75.7413511,0.0990131579 L68.9322467,0.0990131579 C68.9322467,0.0990131579 75.2767357,23.7947368 59.4457962,34.36875 C50.1609555,40.5702303 57.37245,46.3555921 64.9241093,50.0784539 C71.7232577,53.43125 79.7594445,53.43125 86.5585929,50.0784539 C94.1102522,46.3555921 101.321747,40.5702303 92.036906,34.36875" id="Fill-6" fill="#BD857F"></path>
                                            <path d="M70.1576698,9.28141447 L81.3250324,9.28141447 C81.3250324,9.28141447 82.4832522,23.0972039 83.8746093,24.5503289 C84.5283896,25.2328947 66.4648071,26.8217105 66.4648071,26.8217105 C66.4648071,26.8217105 71.0819225,17.1407895 70.1576698,9.28141447" id="Fill-8" fill="#E8A49E"></path>
                                            <path d="M56.1275297,36.8331414 L72.4139582,55.057648 C72.4139582,55.057648 53.5754637,68.6505757 53.4302714,68.0782072 C53.2859088,67.5058388 34.9701066,48.963898 56.1275297,36.8331414" id="Fill-10" fill="#FFFDFD"></path>
                                            <path d="M96.9960945,37.6546053 L80.7096659,55.8791118 C80.7096659,55.8791118 99.5481604,69.4720395 99.6933527,68.8996711 C99.8377154,68.3273026 118.154347,49.7853618 96.9960945,37.6546053" id="Fill-12" fill="#FFFDFD"></path>
                                            <polygon id="Fill-14" fill="#B3B3BF" points="72.4137923 55.0575658 62.4917648 66.1866776 56.1281934 66.5041118"></polygon>
                                            <polygon id="Fill-16" fill="#B3B3BF" points="80.7098319 55.8790296 93.949711 69.4727796 96.9954308 67.3255757"></polygon>
                                            <g id="Group-20" transform="translate(29.038462, 45.230263)">
                                                <mask id="mask-8" fill="white">
                                                    <use xlink:href="#path-7"></use>
                                                </mask>
                                                <g id="Clip-19"></g>
                                                <polygon id="Fill-18" fill="#AEAFCD" mask="url(#mask-8)" points="0.0714346154 0.820230263 6.89630275 45.8720395 4.28118187 59.6697368 1.60549505 58.5949013 4.72339615 44.4337171"></polygon>
                                            </g>
                                            <g id="Group-23" transform="translate(115.324176, 45.230263)">
                                                <mask id="mask-10" fill="white">
                                                    <use xlink:href="#path-9"></use>
                                                </mask>
                                                <g id="Clip-22"></g>
                                                <polygon id="Fill-21" fill="#AEAFCD" mask="url(#mask-10)" points="7.03037747 0.820230263 0.205509341 45.8720395 2.82063022 59.6697368 5.49631703 58.5949013 2.37841593 44.4337171"></polygon>
                                            </g>
                                            <g id="Group-26" transform="translate(69.692308, 82.236842)">
                                                <mask id="mask-12" fill="white">
                                                    <use xlink:href="#path-11"></use>
                                                </mask>
                                                <g id="Clip-25"></g>
                                                <path d="M75.0333934,45.001727 C75.0333934,45.001727 80.1134648,33.8356086 54.3530308,30.5584704 C20.1880363,26.2114309 23.9854374,25.6620888 23.9854374,25.6620888 C23.9854374,25.6620888 18.4324538,13.4877467 13.6734648,10.3462993 C8.91447582,7.20485197 10.1042231,1.31422697 7.72472857,0.135773026 C5.34523407,-1.04268092 1.77516264,7.59712171 7.72472857,14.2731086 C7.72472857,14.2731086 -3.18211758,9.5609375 -3.97528242,10.9351151 C-4.76844725,12.3101151 -5.36332088,17.611102 -3.97528242,17.807648 C-2.86518352,17.9647204 -5.89182088,17.0222862 -6.35477692,21.3421875 C-6.85091978,25.9762336 -4.96673846,26.8397204 -4.96673846,26.8397204 C-4.96673846,26.8397204 -7.28068901,25.1382401 -7.74281538,29.392352 C-7.95521099,31.3446546 -7.74281538,34.8907072 -3.18211758,36.854523 C1.37858022,38.8175164 18.4324538,40.7813322 18.4324538,40.7813322 C18.4324538,40.7813322 32.5658879,50.8833059 57.3564374,50.892352 C75.401767,50.8989309 75.0333934,45.001727 75.0333934,45.001727" id="Fill-24" fill="#FFD9CD" mask="url(#mask-12)"></path>
                                            </g>
                                            <g id="Group-29" transform="translate(69.692308, 82.236842)">
                                                <mask id="mask-14" fill="white">
                                                    <use xlink:href="#path-13"></use>
                                                </mask>
                                                <g id="Clip-28"></g>
                                                <path d="M-64.695867,45.001727 C-64.695867,45.001727 -69.7759385,33.8356086 -44.0155044,30.5584704 C-9.85050989,26.2114309 -13.647911,25.6620888 -13.647911,25.6620888 C-13.647911,25.6620888 -8.09492747,13.4877467 -3.33593846,10.3462993 C1.42305055,7.20485197 0.233303297,1.31422697 2.6127978,0.135773026 C4.99229231,-1.04268092 8.56236374,7.59712171 2.6127978,14.2731086 C2.6127978,14.2731086 13.519644,9.5609375 14.3128088,10.9351151 C15.1059736,12.3101151 15.7008473,17.611102 14.3128088,17.807648 C13.2027099,17.9647204 16.2293473,17.0222862 16.6923033,21.3421875 C17.1884462,25.9762336 15.3042648,26.8397204 15.3042648,26.8397204 C15.3042648,26.8397204 17.6182154,25.1382401 18.0803418,29.392352 C18.2927374,31.3446546 18.0803418,34.8907072 13.519644,36.854523 C8.95894615,38.8175164 -8.09492747,40.7813322 -8.09492747,40.7813322 C-8.09492747,40.7813322 -22.2283615,50.8833059 -47.018911,50.892352 C-65.0642407,50.8989309 -64.695867,45.001727 -64.695867,45.001727" id="Fill-27" fill="#FFD9CD" mask="url(#mask-14)"></path>
                                            </g>
                                        </g>
                                        <g id="Group-43" transform="translate(45.000000, 159.000000)">
                                            <g id="Group-33" transform="translate(0.218750, 67.178422)" fill="#8A5D47">
                                                <path d="M0.347895312,1.56052044 L0.347895312,79.5420715 C0.347895312,80.1671362 0.858848437,80.674435 1.48987969,80.674435 L68.7468797,80.674435 C69.8077078,80.674435 70.6673016,79.8212506 70.6673016,78.7695937 L70.6673016,1.30275333 C70.6673016,0.820160593 70.2731141,0.428156936 69.7853484,0.428156936 L1.48987969,0.428156936 C0.858848437,0.428156936 0.347895312,0.935455786 0.347895312,1.56052044" id="Fill-31"></path>
                                            </g>
                                            <g id="Group-36" transform="translate(1.875000, 67.178422)" fill="#F9F9FA">
                                                <path d="M67.8154047,0.428074582 L0.592357813,0.428074582 L0.592357813,2.87397975 L69.0112172,2.87397975 L69.0112172,1.61726215 C69.0112172,0.960903083 68.4762484,0.428074582 67.8154047,0.428074582" id="Fill-34"></path>
                                            </g>
                                            <g id="Group-39" transform="translate(62.328125, 67.178422)" fill="#8A5D47">
                                                <path d="M0.405284375,2.87365034 L8.558175,2.87365034 L8.558175,1.61775627 C8.558175,0.960573668 8.02320625,0.427745167 7.3623625,0.427745167 L0.405284375,0.427745167 L0.405284375,2.87365034 Z" id="Fill-37"></path>
                                            </g>
                                            <polygon id="Fill-40" fill="#8A5D47" points="1.70440625 68.4367868 63.4966094 68.4367868 63.4966094 67.6066614 1.70440625 67.6066614"></polygon>
                                            <path d="M28.9001141,0.211432667 L39.7568328,0.211432667 C39.7568328,0.211432667 40.1940828,8.14374197 40.3845516,9.03975033 C40.5758484,9.93493515 25.3101922,17.2924156 25.3101922,17.2924156 C25.3101922,17.2924156 29.7986297,7.86538643 28.9001141,0.211432667" id="Fill-42" fill="#E8A49E"></path>
                                        </g>
                                        <g id="Group-85" transform="translate(12.000000, 0.000000)">
                                            <path d="M31.8255901,112.404787 C31.8255901,120.457921 24.1154451,126.986441 14.604058,126.986441 C5.09267081,126.986441 0.770517598,120.457921 0.770517598,112.404787 C0.770517598,104.351652 5.09267081,97.8231324 14.604058,97.8231324 C24.1154451,97.8231324 31.8255901,104.351652 31.8255901,112.404787" id="Fill-44" fill="#BD857F"></path>
                                            <path d="M5.81233954,112.798529 C5.81233954,116.055772 8.26202899,118.695576 11.2848033,118.695576 C14.3067495,118.695576 16.7564389,116.055772 16.7564389,112.798529 C16.7564389,109.541285 14.3067495,106.901481 11.2848033,106.901481 C8.26202899,106.901481 5.81233954,109.541285 5.81233954,112.798529" id="Fill-46" fill="#805358"></path>
                                            <path d="M102.418634,112.404787 C102.418634,120.457921 110.128778,126.986441 119.640166,126.986441 C129.151553,126.986441 133.473706,120.457921 133.473706,112.404787 C133.473706,104.351652 129.151553,97.8231324 119.640166,97.8231324 C110.128778,97.8231324 102.418634,104.351652 102.418634,112.404787" id="Fill-48" fill="#BD857F"></path>
                                            <path d="M128.431884,112.798529 C128.431884,116.055772 125.982195,118.695576 122.95942,118.695576 C119.937474,118.695576 117.487785,116.055772 117.487785,112.798529 C117.487785,109.541285 119.937474,106.901481 122.95942,106.901481 C125.982195,106.901481 128.431884,109.541285 128.431884,112.798529" id="Fill-50" fill="#805358"></path>
                                            <path d="M123.10029,100.93782 C123.10029,138.485271 97.9251346,168.923907 66.8708903,168.923907 C35.8158178,168.923907 10.6414907,138.485271 10.6414907,100.93782 C10.6414907,87.1791436 4.83031056,68.49498 10.6414907,57.7937873 C20.6886957,39.2895727 47.195528,32.9517327 66.8708903,32.9517327 C83.4953209,32.9517327 112.806294,35.21678 123.10029,49.0844164 C132.03528,61.1211945 123.10029,83.4910127 123.10029,100.93782" id="Fill-52" fill="#BD857F"></path>
                                            <path d="M72.5551139,95.7302749 C72.0267495,90.6917004 63.5812008,90.2740204 62.3356522,95.2878313 C60.2478675,103.69426 55.9464182,116.549064 56.5633954,119.737795 C57.0536646,122.270289 59.7956936,124.073908 62.3621532,125.23202 C65.3534576,126.583289 68.8706418,126.583289 71.8627743,125.23202 C74.4284058,124.073908 77.1712629,122.270289 77.6607039,119.737795 C78.2776812,116.549064 73.4586335,104.343068 72.5551139,95.7302749" id="Fill-54" fill="#805358"></path>
                                            <path d="M92.6294824,96.5980753 C92.6294824,99.2923589 90.4332091,101.475686 87.7226501,101.475686 C85.0129193,101.475686 82.816646,99.2923589 82.816646,96.5980753 C82.816646,93.9037916 85.0129193,91.7204644 87.7226501,91.7204644 C90.4332091,91.7204644 92.6294824,93.9037916 92.6294824,96.5980753" id="Fill-56" fill="#000000"></path>
                                            <path d="M48.1584265,96.5980753 C48.1584265,99.2923589 45.9621532,101.475686 43.2515942,101.475686 C40.5418634,101.475686 38.3455901,99.2923589 38.3455901,96.5980753 C38.3455901,93.9037916 40.5418634,91.7204644 43.2515942,91.7204644 C45.9621532,91.7204644 48.1584265,93.9037916 48.1584265,96.5980753" id="Fill-58" fill="#000000"></path>
                                            <path d="M153.691429,73.5238967 C153.691429,73.5238967 148.016066,68.3903949 142.341532,54.4591985 C136.667826,40.5271767 128.865756,30.2601731 118.226418,26.5943295 C107.587909,22.9276604 109.714617,12.6631331 110.778799,11.929304 C110.795362,11.9177476 110.806128,11.9119695 110.821035,11.902064 C110.156853,12.1637331 108.276936,12.6127804 104.75147,11.929304 C99.0761077,10.8289731 73.8959834,-8.96872873 41.2682402,6.06279855 C8.64215321,21.0943258 12.8980538,32.4600095 12.8980538,32.4600095 C12.8980538,32.4600095 0.516273292,33.4191876 0.48563147,54.9519949 C0.419378882,99.9219331 11.4785921,109.453457 11.4785921,109.453457 C11.4785921,109.453457 14.3158592,66.5570604 16.7978468,62.1573876 C19.2814907,57.7585404 22.8284886,55.5578785 32.404472,60.6913804 C41.9787992,65.8248822 55.4545756,72.7908931 76.025176,63.6242204 C96.5932919,54.4591985 102.266998,48.9600204 116.098882,54.8257004 C117.460373,55.4035185 118.921242,56.0498495 120.442567,56.7432313 C120.705093,60.3050676 121.480248,71.2184022 121.773416,79.3904022 C122.127039,89.2892531 122.837598,109.453457 122.837598,109.453457 C122.837598,109.453457 128.205714,103.586951 128.510476,80.4899076 C128.619793,72.2089476 128.652919,64.547904 128.663685,60.6393767 C140.927039,66.6313513 153.691429,73.5238967 153.691429,73.5238967" id="Fill-60" fill="#160D0C"></path>
                                            <path d="M98.1392961,77.0461113 C86.4672464,73.5990131 77.6664182,76.7844422 79.0767702,83.1247585" id="Fill-62" fill="#100713"></path>
                                            <path d="M37.4173085,77.0461113 C49.0893582,73.5990131 57.8901863,76.7844422 56.4798344,83.1247585" id="Fill-64" fill="#100713"></path>
                                            <polygon id="Fill-66" fill="#6E5F8A" points="63.8989648 196.422027 56.6252588 203.227074 60.4082816 210.032121 66.8140787 210.032121 71.5503106 204.170569"></polygon>
                                            <path d="M84.8482816,154.486295 C77.150559,159.818731 72.3985921,155.518113 73.8420704,152.250138 C75.2855487,148.982164 71.3161905,149.154684 66.9857557,149.154684 C62.1749896,149.154684 58.5658799,148.982164 60.0101863,152.250138 C61.4528364,155.518113 56.6404141,159.818731 48.9426915,154.486295 C41.2449689,149.154684 37.6358592,145.026585 41.0039752,143.994767 C44.3729193,142.962949 66.9857557,143.651378 66.9857557,137.631338 C66.9857557,143.651378 89.5091511,142.962949 92.8772671,143.994767 C96.245383,145.026585 92.5460041,149.154684 84.8482816,154.486295 M122.97913,125.506236 C123.219296,116.563262 125.644969,106.756036 124.160911,105.738251 C121.153872,103.674615 119.46029,113.725349 116.814327,122.669149 C114.167536,131.612124 102.649524,138.663156 102.649524,138.663156 C100.725714,131.096215 84.4267495,131.956338 78.171677,129.375967 C71.9174327,126.796422 66.9857557,130.580305 66.9857557,130.580305 C66.9857557,130.580305 61.9339959,126.796422 55.6789234,129.375967 C49.4238509,131.956338 33.066087,131.096215 31.1414493,138.663156 C31.1414493,138.663156 19.5936232,131.612124 16.9476605,122.669149 C14.3008696,113.725349 12.8582195,104.609855 9.85118012,106.674316 C8.36712215,107.692102 10.5120497,116.563262 10.7522153,125.506236 C10.992381,134.449211 1.22095238,162.4412 10.3621532,171.728389 C19.503354,181.015578 35.9522153,204.361909 66.9857557,204.361909 C98.0192961,204.361909 114.348075,181.015578 123.489275,171.728389 C132.630476,162.4412 122.738965,134.449211 122.97913,125.506236" id="Fill-68" fill="#160D0C"></path>
                                            <path d="M66.8138302,209.925473 L71.5500621,226.616164 C71.5500621,226.616164 64.0419876,226.648356 62.170352,226.585622 C60.5239752,226.529491 55.1061698,226.006153 55.1061698,226.006153 L60.4080331,209.925473" id="Fill-70" fill="#AEAFCD"></path>
                                            <path d="M34.2401656,86.0772444 C34.2401656,86.0772444 56.5979296,88.2044407 57.7465839,110.914346 L60.5697723,101.129408 L57.8757764,88.2192989 L40.0645963,83.2929862 L34.2401656,86.0772444 Z" id="Fill-72" fill="#D7AF9B"></path>
                                            <path d="M94.4415735,85.4711131 C94.4415735,85.4711131 116.603892,97.9965604 117.227495,118.406749 L121.933913,112.404869 L122.810932,102.7454 L122.96,89.6520404 L104.777805,83.1251713 L94.4415735,85.4711131 Z" id="Fill-74" fill="#D7AF9B"></path>
                                            <path d="M36.7714286,84.7021196 C20.9635611,84.7021196 11.810766,87.3897996 11.810766,101.129491 C11.810766,116.098283 22.5412008,127.386374 36.7714286,127.386374 C50.2207039,127.386374 58.910559,117.079749 58.910559,101.129491 C58.910559,87.074476 52.0807453,84.7021196 36.7714286,84.7021196 M36.7714286,128.944007 C21.6501035,128.944007 10.2463768,116.986472 10.2463768,101.129491 C10.2463768,84.5329015 23.3503106,83.1444869 36.7714286,83.1444869 C52.4923395,83.1444869 60.4757764,85.9262687 60.4757764,101.129491 C60.4757764,108.854094 58.3424431,115.814327 54.4708075,120.727432 C50.2339545,126.102792 44.1138716,128.944007 36.7714286,128.944007" id="Fill-76" fill="#042940"></path>
                                            <path d="M103.426335,79.2294385 C95.8337888,79.2583295 84.3331677,81.8411767 77.150559,84.1458458 C70.8441408,86.1698604 67.1008696,88.4382095 67.1008696,88.4382095 C67.1008696,88.4382095 64.160911,86.9697258 57.0495238,84.1458458 C50.8946584,81.7033258 39.0677433,79.1972458 30.7737474,79.2294385 C23.182029,79.2583295 4.85242236,81.336824 5.73358178,89.5897185 C6.6147412,97.8417876 12.2578054,96.3782567 12.2578054,96.3782567 C12.2578054,96.3782567 11.4039752,86.2524058 34.1460041,86.0774095 C50.5460041,85.949464 55.4735404,87.2693658 57.8992133,93.3537913 C58.8424845,95.7203695 58.8077019,104.077271 58.8077019,104.077271 C58.8077019,104.077271 60.3414493,103.573744 62.5153623,101.178275 C64.7323395,98.734104 64.013499,98.8149985 67.0039752,98.7951876 C70.097971,98.7745513 69.034617,98.7720749 71.6847205,101.178275 C74.0797516,103.352522 75.4097723,104.292715 75.4097723,104.292715 C75.4097723,104.292715 74.6553209,98.8092204 75.7418634,94.5053004 C77.7153623,86.6890713 82.2950725,86.185544 98.6636025,85.1991258 C119.831304,83.9229731 121.94559,96.3782567 121.94559,96.3782567 C121.94559,96.3782567 127.584513,97.8417876 128.466501,89.5897185 C129.346832,81.336824 111.895901,79.1972458 103.426335,79.2294385" id="Fill-78" fill="#042940"></path>
                                            <path d="M97.4322153,84.7021196 C82.1212422,84.7021196 75.2914286,87.074476 75.2914286,101.129491 C75.2914286,117.079749 83.9821118,127.386374 97.4322153,127.386374 C111.660787,127.386374 122.391222,116.098283 122.391222,101.129491 C122.391222,87.3897996 113.239255,84.7021196 97.4322153,84.7021196 M97.4322153,128.944007 C90.0889441,128.944007 83.9680331,126.102792 79.7311801,120.727432 C75.8595445,115.814327 73.7270393,108.854094 73.7270393,101.129491 C73.7270393,85.9262687 81.709648,83.1444869 97.4322153,83.1444869 C110.852505,83.1444869 123.955611,84.5329015 123.955611,101.129491 C123.955611,116.986472 112.55354,128.944007 97.4322153,128.944007" id="Fill-80" fill="#042940"></path>
                                            <g id="Group-84" transform="translate(177.225673, 183.250909)">
                                                <mask id="mask-16" fill="white">
                                                    <use xlink:href="#path-15"></use>
                                                </mask>
                                                <g id="Clip-83"></g>
                                                <path d="M0.734078675,0.538774182 C0.738219462,0.276279636 0.471552795,0.561886909 0.734078675,0.538774182" id="Fill-82" fill="#EDE5D0" mask="url(#mask-16)"></path>
                                            </g>
                                        </g>
                                    </g>
                                </g>
                            </g>
                        </g>
                    </g>
                </g>
            </g>
        </g>
    </g>
</svg>