<?xml version="1.0" encoding="UTF-8" standalone="no"?>
<svg width="189px" height="279px" viewBox="0 0 189 279" version="1.1" xmlns="http://www.w3.org/2000/svg" xmlns:xlink="http://www.w3.org/1999/xlink">
    <!-- Generator: Sketch 39.1 (31720) - http://www.bohemiancoding.com/sketch -->
    <title>fly_comtact_us</title>
    <desc>Created with Sketch.</desc>
    <defs></defs>
    <g id="myU" stroke="none" stroke-width="1" fill="none" fill-rule="evenodd">
        <g id="Large-Devices:-Desktops-landing-fixes-v2" transform="translate(0.000000, -3572.000000)">
            <g id="fly_comtact_us" transform="translate(-87.000000, 3565.000000)">
                <path d="M129.53105,67.0196607 C126.9955,66.6265971 124.439307,66.4531867 121.969124,66.4358457 C121.690454,66.4358457 121.411784,66.4358457 121.139995,66.4445162 L121.064307,64.0312214 C121.394582,64.025441 121.714537,64.0196607 122.055133,64.0196607 C124.683573,64.0196607 127.377381,64.2306433 130.064307,64.6439381 L129.53105,67.0196607 Z M279.595784,68.0196607 L278.064307,66.2227064 C280.546947,65.0856505 283.129168,64.0095084 285.72169,63.0196607 L287.064307,64.9003713 C284.526726,65.8648383 282.020049,66.9130617 279.595784,68.0196607 L279.595784,68.0196607 Z M106.438791,69.0196607 L105.064307,67.2956041 C107.66806,66.3073965 110.450799,65.5408871 113.344983,65.0196607 L114.064307,66.9253211 C111.403144,67.4064531 108.83654,68.1116418 106.438791,69.0196607 L106.438791,69.0196607 Z M145.606776,71.0196607 C143.167365,69.8820659 140.632824,68.9124017 138.064307,68.1323367 L139.093752,66.0196607 C141.811759,66.8430626 144.499188,67.8723151 147.064307,69.0722067 L145.606776,71.0196607 Z M265.80953,76.0196607 L264.064307,74.2991918 C266.153479,72.7951341 268.306345,71.3587049 270.465581,70.0196607 L272.064307,71.8375146 C269.956027,73.1468022 267.847747,74.5480646 265.80953,76.0196607 L265.80953,76.0196607 Z M94.3514955,77.0196607 L92.0643072,75.7443821 C93.4606958,74.4715798 94.9602659,73.2507791 96.5183055,72.1166479 C97.0342126,71.7377787 97.5673166,71.3737672 98.1072994,71.0196607 L100.064307,72.5450424 C99.5690363,72.87191 99.0737655,73.2111588 98.5922522,73.562789 C97.109879,74.6424424 95.6825359,75.8062888 94.3514955,77.0196607 L94.3514955,77.0196607 Z M158.014473,78.0196607 C156.290221,76.6142092 154.482912,75.2751973 152.645703,74.0384 L152.064307,73.6678719 L153.851683,72.0196607 L154.486234,72.4259639 C156.4065,73.7215346 158.280254,75.1090985 160.064307,76.5605465 L158.014473,78.0196607 Z M254.167261,84.0196607 L252.064307,82.6056799 C254.052493,81.0008243 256.071058,79.4587565 258.06937,78.0196607 L260.064307,79.5215443 C258.09975,80.9330135 256.118316,82.4449432 254.167261,84.0196607 L254.167261,84.0196607 Z M85.5220239,88.0196607 L83.0643072,87.140653 C84.1552163,85.019279 85.395174,82.9620271 86.7556391,81.0196607 L89.0643072,82.1444698 C87.7609245,84.0040118 86.5717068,85.9837828 85.5220239,88.0196607 L85.5220239,88.0196607 Z M167.762359,88.0196607 C166.265606,86.3550987 164.687684,84.7473639 163.064307,83.2319732 L165.229892,82.0196607 C166.898723,83.5753039 168.525346,85.2327625 170.064307,86.9423126 L167.762359,88.0196607 Z M243.451462,93.0196607 L241.064307,91.7926619 C243.016136,90.088363 244.87519,88.5287005 246.741381,87.0196607 L249.064307,88.3021034 C247.219526,89.7894477 245.385449,91.3346466 243.451462,93.0196607 L243.451462,93.0196607 Z M175.638977,99.0196607 C174.511801,96.9845596 173.305468,94.9895195 172.064307,93.090626 L174.407315,92.0196607 C175.683305,93.9639567 176.908634,96.0017286 178.064307,98.084903 L175.638977,99.0196607 Z M80.9936358,100.019661 L78.0643072,99.6164777 C78.6226111,97.3857084 79.3399256,95.1655493 80.2056499,93.0196607 L83.0643072,93.658918 C82.2233178,95.725231 81.5307383,97.8658145 80.9936358,100.019661 L80.9936358,100.019661 Z M233.29835,103.019661 L231.064307,101.883118 C232.63785,100.265912 234.227582,98.6416023 235.849691,97.0196607 L238.064307,98.1822495 C236.445436,99.7947199 234.86218,101.409558 233.29835,103.019661 L233.29835,103.019661 Z M182.153344,111.019661 C181.186657,108.914378 180.154556,106.830227 179.064307,104.82268 L181.917124,104.019661 C183.029177,106.064189 184.090352,108.187963 185.064307,110.332868 L182.153344,111.019661 Z M76.0943072,111.019661 C76.0733072,110.489352 76.0643072,109.95435 76.0643072,109.419348 C76.0643072,107.962171 76.1393072,106.48153 76.2893072,105.019661 L78.8123072,105.172183 C78.6713072,106.584776 78.5963072,108.013794 78.5963072,109.419348 C78.5963072,109.935578 78.6053072,110.449461 78.6263072,110.960998 L76.0943072,111.019661 Z M223.287302,114.019661 L221.064307,112.867452 C222.651233,111.275181 224.231669,109.654519 225.818596,108.019661 L228.064307,109.152941 C226.47089,110.794897 224.880719,112.422658 223.287302,114.019661 L223.287302,114.019661 Z M187.164378,123.019661 C186.533652,120.864795 185.825407,118.704628 185.064307,116.597472 L187.929001,116.019661 C188.711242,118.163924 189.430058,120.361198 190.064307,122.54787 L187.164378,123.019661 Z M213.092432,124.019661 L211.064307,122.731879 C212.648682,121.282522 214.245557,119.741526 215.964307,118.019661 L218.064307,119.237506 C216.323682,120.985899 214.695557,122.5486 213.092432,124.019661 L213.092432,124.019661 Z M78.615512,125.019661 C77.9227409,122.840817 77.4046686,120.584729 77.0643072,118.307332 L79.5853915,118.019661 C79.9106927,120.193177 80.4076807,122.348047 81.0643072,124.425673 L78.615512,125.019661 Z M200.922457,133.019661 L199.064307,131.420682 C201.045228,130.087349 203.049376,128.605868 205.030296,127.019661 L207.064307,128.488371 C205.02366,130.120555 202.959786,131.645459 200.922457,133.019661 L200.922457,133.019661 Z M188.992424,134.019661 C188.854116,132.637534 188.198975,128.85171 188.064307,128.338613 L191.088875,128.019661 C191.230822,128.539691 191.911441,132.491926 192.064307,133.892542 L188.992424,134.019661 Z M86.5165659,136.019661 C84.8384345,134.101779 83.3399745,132.054964 82.0643072,129.932938 L84.8348411,129.019661 C86.0458267,131.034242 87.4688246,132.984358 89.0643072,134.800167 L86.5165659,136.019661 Z M187.436427,140.019661 L186.064307,138.201479 C186.779745,137.92974 187.495183,137.65553 188.210621,137.381321 C189.92145,136.672329 191.670298,135.871933 193.374215,135.019661 L195.064307,136.701973 C193.291266,137.591301 191.469837,138.423811 189.644952,139.17974 C188.884584,139.471242 188.16569,139.745451 187.436427,140.019661 L187.436427,140.019661 Z M97.3603598,146.019661 C95.1136493,144.658142 92.9985177,143.128375 91.0643072,141.474363 L93.1169388,140.019661 C94.9425967,141.583077 96.9458861,143.027426 99.0643072,144.31388 L97.3603598,146.019661 Z M172.215116,147.019661 L171.064307,144.917575 C173.545315,144.042163 176.151558,143.067959 178.801802,142.019661 L180.064307,144.075094 C177.376831,145.139858 174.73674,146.130528 172.215116,147.019661 L172.215116,147.019661 Z M191.593307,147.019661 L189.064307,146.946317 C189.121307,145.678178 189.151307,144.369818 189.151307,143.054361 C189.151307,142.387169 189.142307,141.71761 189.130307,141.052784 L191.662307,141.019661 C191.680307,141.693951 191.683307,142.375339 191.683307,143.054361 C191.683307,144.393478 191.653307,145.725497 191.593307,147.019661 L191.593307,147.019661 Z M155.874543,150.019661 L155.064307,148.010872 C157.663112,147.440879 160.35269,146.772956 163.075887,146.019661 L164.064307,147.985762 C161.283956,148.754124 158.530501,149.439623 155.874543,150.019661 L155.874543,150.019661 Z M113.186258,151.019661 C110.386634,150.413461 107.657928,149.637342 105.064307,148.714265 L106.394889,147.019661 C108.83654,147.889925 111.42003,148.62012 114.064307,149.194173 L113.186258,151.019661 Z M139.364535,153.019661 L139.064307,150.966119 C141.800471,150.761012 144.632162,150.442231 147.477499,150.019661 L148.064307,152.041077 C145.120031,152.478475 142.196225,152.809611 139.364535,153.019661 L139.364535,153.019661 Z M131.026201,154.019661 C127.998487,153.987339 124.991559,153.79635 122.064307,153.45257 L122.480012,151.019661 C125.275624,151.351688 128.161305,151.536801 131.064307,151.563245 L131.026201,154.019661 Z M190.896648,161.019661 L188.064307,160.638087 C188.534094,158.504498 188.918775,156.279546 189.204733,154.019661 L192.064307,154.240006 C191.771541,156.553634 191.376648,158.832329 190.896648,161.019661 L190.896648,161.019661 Z M186.619005,173.019661 L184.064307,172.269189 C184.952338,170.268811 185.747061,168.168019 186.43239,166.019661 L189.064307,166.571945 C188.359674,168.786365 187.535993,170.955863 186.619005,173.019661 L186.619005,173.019661 Z M178.578217,183.019661 L176.064307,181.978491 C177.622223,180.413274 179.070377,178.74417 180.376902,177.019661 L183.064307,177.862292 C181.704671,179.656059 180.199866,181.392112 178.578217,183.019661 L178.578217,183.019661 Z M167.994874,194.019661 L166.064307,192.477019 C168.123579,191.089895 170.074468,189.589895 171.872944,188.019661 L174.064307,189.366651 C172.187931,191.004611 170.145594,192.572336 167.994874,194.019661 L167.994874,194.019661 Z M153.363276,201.019661 L152.064307,199.129817 C154.631317,198.192475 157.126163,197.146492 159.469805,196.019661 L161.064307,197.780651 C158.624445,198.95296 156.033379,200.041894 153.363276,201.019661 L153.363276,201.019661 Z M26.7244903,203.019661 L18.0643072,202.230327 L18.4075566,200.019661 L27.0643072,200.803661 L26.7244903,203.019661 Z M43.751473,205.019661 C40.8534592,204.775978 37.9588832,204.524173 35.0643072,204.266953 L35.3908924,202.019661 C38.2785929,202.276881 41.1697312,202.525978 44.0643072,202.772368 L43.751473,205.019661 Z M136.794128,205.019661 L136.064307,202.937186 C138.828881,202.383063 141.522827,201.738733 144.078881,201.019661 L145.064307,203.037702 C142.427536,203.782547 139.639419,204.447496 136.794128,205.019661 L136.794128,205.019661 Z M60.8021378,206.019661 C57.8837782,205.809184 54.9723179,205.584675 52.0643072,205.351747 L52.3540734,203.019661 C55.2517353,203.255395 58.1562965,203.474291 61.0643072,203.687575 L60.8021378,206.019661 Z M77.8769517,207.019661 C74.9347775,206.862546 71.9960728,206.681716 69.0643072,206.489028 L69.2932972,204.019661 C72.2111846,204.215313 75.1325416,204.390214 78.0643072,204.550293 L77.8769517,207.019661 Z M120.364991,207.019661 L120.064307,204.895405 C122.978886,204.670725 125.838795,204.377107 128.562029,204.019661 L129.064307,206.120937 C126.272735,206.486044 123.344489,206.784767 120.364991,207.019661 L120.364991,207.019661 Z M94.9321588,206.991661 C92.1014015,206.919661 89.1211078,206.815661 86.0643072,206.685661 L86.2903505,205.019661 C89.3123752,205.149661 92.2683257,205.251661 95.0643072,205.321661 L94.9321588,206.991661 Z M103.882808,207.789661 L103.064307,207.787661 L103.071333,206.117661 L103.882808,206.117661 C106.633394,206.117661 109.341825,206.085661 111.927305,206.019661 L112.064307,207.689661 C109.429647,207.755661 106.679061,207.789661 103.882808,207.789661 L103.882808,207.789661 Z" id="Fill-5" fill="#BBD8E5" transform="translate(152.564307, 135.404661) scale(-1, 1) rotate(-34.000000) translate(-152.564307, -135.404661) "></path>
                <g id="arrow2" transform="translate(240.903355, 279.165159) rotate(44.000000) translate(-240.903355, -279.165159) translate(211.403355, 258.165159)">
                    <polygon id="Fill-133" fill="#FDBF72" points="58.4536957 1.54440152 9.9719539 20.5030609 9.45138395 24.643499"></polygon>
                    <polygon id="Fill-134" fill="#FFA029" points="58.4836525 1.50515139 16.0417035 41.5051514 9.48365253 24.6432144"></polygon>
                    <polygon id="Fill-135" fill="#FDBF72" points="58.4925657 1.52964019 9.95875854 20.5296402 6.68570453 17.6186848"></polygon>
                    <polygon id="Fill-136" fill="#FFA029" points="58.4506329 1.55969693 0.168371966 0.638925154 6.68058682 17.6389252"></polygon>
                </g>
            </g>
        </g>
    </g>
</svg>