<?xml version="1.0" encoding="UTF-8" standalone="no"?>
<svg width="261px" height="159px" viewBox="0 0 261 159" version="1.1" xmlns="http://www.w3.org/2000/svg" xmlns:xlink="http://www.w3.org/1999/xlink">
    <!-- Generator: Sketch 39.1 (31720) - http://www.bohemiancoding.com/sketch -->
    <title>fly_testimonials</title>
    <desc>Created with Sketch.</desc>
    <defs></defs>
    <g id="myU" stroke="none" stroke-width="1" fill="none" fill-rule="evenodd">
        <g id="Large-Devices:-Desktops-landing-fixes-v2" transform="translate(-939.000000, -3021.000000)">
            <g id="users-testimonials" transform="translate(2.000000, 2992.000000)">
                <g id="fly_testimonials" transform="translate(936.000000, 28.000000)">
                    <path d="M165.466743,4 C162.931193,3.60693642 160.375,3.43352601 157.904817,3.41618497 C157.626147,3.41618497 157.347477,3.41618497 157.075688,3.42485549 L157,1.01156069 C157.330275,1.00578035 157.650229,1 157.990826,1 C160.619266,1 163.313073,1.21098266 166,1.62427746 L165.466743,4 Z M315.531477,5 L314,3.20304569 C316.48264,2.06598985 319.064861,0.989847716 321.657383,-7.10542736e-14 L323,1.88071066 C320.462419,2.84517766 317.955742,3.89340102 315.531477,5 L315.531477,5 Z M142.374484,6 L141,4.2759434 C143.603752,3.28773585 146.386492,2.52122642 149.280675,2 L150,3.90566038 C147.338837,4.38679245 144.772233,5.09198113 142.374484,6 L142.374484,6 Z M181.542469,8 C179.103058,6.8624052 176.568516,5.89274106 174,5.11267606 L175.029445,3 C177.747452,3.82340195 180.434881,4.85265439 183,6.05254605 L181.542469,8 Z M301.745223,13 L300,11.2795311 C302.089172,9.7754734 304.242038,8.33904418 306.401274,7 L308,8.81785392 C305.89172,10.1271416 303.783439,11.528404 301.745223,13 L301.745223,13 Z M130.287188,14 L128,12.7247214 C129.396389,11.4519191 130.895959,10.2311184 132.453998,9.09698721 C132.969905,8.71811804 133.503009,8.35410648 134.042992,8 L136,9.52538176 C135.504729,9.85224928 135.009458,10.1914981 134.527945,10.5431284 C133.045572,11.6227817 131.618229,12.7866281 130.287188,14 L130.287188,14 Z M193.950166,15 C192.225914,13.5945486 190.418605,12.2555366 188.581395,11.0187394 L188,10.6482112 L189.787375,9 L190.421927,9.40630324 C192.342193,10.7018739 194.215947,12.0894378 196,13.5408859 L193.950166,15 Z M290.102954,21 L288,19.5860193 C289.988186,17.9811637 292.006751,16.4390959 294.005063,15 L296,16.5018836 C294.035443,17.9133529 292.054008,19.4252825 290.102954,21 L290.102954,21 Z M121.457717,25 L119,24.1209924 C120.090909,21.9996183 121.330867,19.9423664 122.691332,18 L125,19.1248092 C123.696617,20.9843511 122.5074,22.9641221 121.457717,25 L121.457717,25 Z M203.698052,25 C202.201299,23.335438 200.623377,21.7277032 199,20.2123125 L201.165584,19 C202.834416,20.5556433 204.461039,22.2131018 206,23.9226519 L203.698052,25 Z M279.387154,30 L277,28.7730012 C278.951829,27.0687023 280.810883,25.5090398 282.677074,24 L285,25.2824427 C283.155219,26.7697871 281.321142,28.3149859 279.387154,30 L279.387154,30 Z M211.57467,36 C210.447493,33.9648989 209.241161,31.9698588 208,30.0709653 L210.343008,29 C211.618997,30.9442961 212.844327,32.9820679 214,35.0652423 L211.57467,36 Z M116.929329,37 L114,36.596817 C114.558304,34.3660477 115.275618,32.1458886 116.141343,30 L119,30.6392573 C118.159011,32.7055703 117.466431,34.8461538 116.929329,37 L116.929329,37 Z M269.234043,40 L267,38.863457 C268.573543,37.246251 270.163275,35.6219416 271.785384,34 L274,35.1625888 C272.381129,36.7750592 270.797872,38.3898974 269.234043,40 L269.234043,40 Z M218.089037,48 C217.12235,45.894717 216.090248,43.810566 215,41.8030189 L217.852816,41 C218.96487,43.0445283 220.026045,45.1683019 221,47.3132075 L218.089037,48 Z M112.03,48 C112.009,47.469691 112,46.9346891 112,46.3996871 C112,44.9425108 112.075,43.4618694 112.225,42 L114.748,42.1525225 C114.607,43.5651154 114.532,44.9941338 114.532,46.3996871 C114.532,46.9159171 114.541,47.4298005 114.562,47.9413375 L112.03,48 Z M259.222995,51 L257,49.8477918 C258.586926,48.2555205 260.167362,46.634858 261.754288,45 L264,46.1332808 C262.406583,47.7752366 260.816412,49.4029968 259.222995,51 L259.222995,51 Z M223.10007,60 C222.469345,57.8451344 221.761099,55.6849678 221,53.5778114 L223.864693,53 C224.646934,55.1442635 225.365751,57.3415373 226,59.528209 L223.10007,60 Z M249.028125,61 L247,59.7122186 C248.584375,58.2628617 250.18125,56.721865 251.9,55 L254,56.2178457 C252.259375,57.9662379 250.63125,59.5289389 249.028125,61 L249.028125,61 Z M114.551205,62 C113.858434,59.8211568 113.340361,57.5650685 113,55.2876712 L115.521084,55 C115.846386,57.173516 116.343373,59.3283866 117,61.4060122 L114.551205,62 Z M236.85815,70 L235,68.4010217 C236.980921,67.0676884 238.985068,65.5862069 240.965989,64 L243,65.4687101 C240.959353,67.100894 238.895479,68.6257982 236.85815,70 L236.85815,70 Z M224.928116,71 C224.789809,69.6178737 224.600546,68.2057011 224.382166,66.8004622 C224.265696,66.3428351 224.134668,65.8320493 224,65.3189522 L227.024568,65 C227.166515,65.5200308 227.297543,66.0377504 227.424932,66.5600924 C227.66151,68.0392912 227.847134,69.472265 228,70.8728814 L224.928116,71 Z M122.452259,73 C120.774127,71.0821182 119.275667,69.0353031 118,66.9132771 L120.770534,66 C121.98152,68.0145817 123.404517,69.9646969 125,71.7805065 L122.452259,73 Z M223.37212,77 L222,75.1818182 C222.715438,74.9100791 223.430876,74.6358696 224.146313,74.3616601 C225.857143,73.652668 227.605991,72.8522727 229.309908,72 L231,73.6823123 C229.226959,74.5716403 227.40553,75.4041502 225.580645,76.1600791 C224.820276,76.451581 224.101382,76.7257905 223.37212,77 L223.37212,77 Z M133.296053,83 C131.049342,81.6384814 128.934211,80.1087144 127,78.4547023 L129.052632,77 C130.878289,78.5634167 132.881579,80.0077653 135,81.2942192 L133.296053,83 Z M208.150809,84 L207,81.8979144 C209.481008,81.0225027 212.087251,80.0482986 214.737495,79 L216,81.0554336 C213.312524,82.1201976 210.672433,83.1108672 208.150809,84 L208.150809,84 Z M227.529,84 L225,83.9266562 C225.057,82.6585174 225.087,81.3501577 225.087,80.0347003 C225.087,79.3675079 225.078,78.6979495 225.066,78.033123 L227.598,78 C227.616,78.6742902 227.619,79.3556782 227.619,80.0347003 C227.619,81.373817 227.589,82.705836 227.529,84 L227.529,84 Z M191.810235,87 L191,84.9912116 C193.598805,84.4212178 196.288383,83.7532957 199.01158,83 L200,84.9661017 C197.219649,85.7344633 194.466194,86.4199623 191.810235,87 L191.810235,87 Z M149.121951,88 C146.322326,87.3938002 143.593621,86.6176808 141,85.6946039 L142.330582,84 C144.772233,84.8702641 147.355722,85.6004592 150,86.1745121 L149.121951,88 Z M175.300227,90 L175,87.946458 C177.736164,87.7413509 180.567854,87.42257 183.413192,87 L184,89.0214168 C181.055724,89.4588138 178.131918,89.7899506 175.300227,90 L175.300227,90 Z M166.961894,91 C163.93418,90.9676787 160.927252,90.7766895 158,90.4329089 L158.415704,88 C161.211316,88.3320274 164.096998,88.5171401 167,88.5435847 L166.961894,91 Z M226.83234,98 L224,97.6184261 C224.469787,95.4848369 224.854468,93.2598848 225.140426,91 L228,91.2203455 C227.707234,93.5339731 227.31234,95.8126679 226.83234,98 L226.83234,98 Z M222.554698,110 L220,109.249528 C220.888031,107.249151 221.682754,105.148358 222.368082,103 L225,103.552284 C224.295367,105.766704 223.471686,107.936202 222.554698,110 L222.554698,110 Z M214.51391,120 L212,118.95883 C213.557916,117.393613 215.00607,115.724509 216.312595,114 L219,114.842632 C217.640364,116.636399 216.135559,118.372451 214.51391,120 L214.51391,120 Z M203.930567,131 L202,129.457358 C204.059272,128.070234 206.010161,126.570234 207.808637,125 L210,126.34699 C208.123624,127.98495 206.081287,129.552676 203.930567,131 L203.930567,131 Z M189.298969,138 L188,136.110157 C190.56701,135.172815 193.061856,134.126832 195.405498,133 L197,134.76099 C194.560137,135.9333 191.969072,137.022233 189.298969,138 L189.298969,138 Z M62.6601831,140 L54,139.210667 L54.3432494,137 L63,137.784 L62.6601831,140 Z M79.6871658,142 C76.789152,141.756318 73.894576,141.504513 71,141.247292 L71.3265852,139 C74.2142857,139.25722 77.105424,139.506318 80,139.752708 L79.6871658,142 Z M172.729821,142 L172,139.917526 C174.764574,139.363402 177.45852,138.719072 180.014574,138 L181,140.018041 C178.363229,140.762887 175.575112,141.427835 172.729821,142 L172.729821,142 Z M96.7378306,143 C93.8194711,142.789523 90.9080107,142.565014 88,142.332086 L88.2897662,140 C91.1874281,140.235734 94.0919893,140.45463 97,140.667914 L96.7378306,143 Z M113.812645,144 C110.87047,143.842885 107.931766,143.662055 105,143.469368 L105.22899,141 C108.146877,141.195652 111.068234,141.370553 114,141.530632 L113.812645,144 Z M156.300683,144 L156,141.875745 C158.914579,141.651064 161.774487,141.357447 164.497722,141 L165,143.101277 C162.208428,143.466383 159.280182,143.765106 156.300683,144 L156.300683,144 Z M130.867852,143.972 C128.037094,143.9 125.056801,143.796 122,143.666 L122.226043,142 C125.248068,142.13 128.204019,142.232 131,142.302 L130.867852,143.972 Z M139.818501,144.77 L139,144.768 L139.007026,143.098 L139.818501,143.098 C142.569087,143.098 145.277518,143.066 147.862998,143 L148,144.67 C145.36534,144.736 142.614754,144.77 139.818501,144.77 L139.818501,144.77 Z" id="Fill-5" fill="#BBD8E5"></path>
                    <g id="arrow2" transform="translate(34.903355, 145.165159) scale(-1, 1) rotate(20.000000) translate(-34.903355, -145.165159) translate(5.403355, 124.165159)">
                        <polygon id="Fill-133" fill="#ECDAE9" points="58.4536957 1.54440152 9.9719539 20.5030609 9.45138395 24.643499"></polygon>
                        <polygon id="Fill-134" fill="#C7A4C7" points="58.4836525 1.50515139 16.0417035 41.5051514 9.48365253 24.6432144"></polygon>
                        <polygon id="Fill-135" fill="#ECDAE9" points="58.4925657 1.52964019 9.95875854 20.5296402 6.68570453 17.6186848"></polygon>
                        <polygon id="Fill-136" fill="#C7A4C7" points="58.4506329 1.55969693 0.168371966 0.638925154 6.68058682 17.6389252"></polygon>
                    </g>
                </g>
            </g>
        </g>
    </g>
</svg>