<?xml version="1.0" encoding="UTF-8" standalone="no"?>
<svg width="40px" height="40px" viewBox="0 0 40 40" version="1.1" xmlns="http://www.w3.org/2000/svg" xmlns:xlink="http://www.w3.org/1999/xlink">
    <!-- Generator: Sketch 39.1 (31720) - http://www.bohemiancoding.com/sketch -->
    <title>icon_section_contact_us</title>
    <desc>Created with Sketch.</desc>
    <defs></defs>
    <g id="myU" stroke="none" stroke-width="1" fill="none" fill-rule="evenodd">
        <g id="Large-Devices:-Desktops-landing-fixes-v2" transform="translate(-421.000000, -3698.000000)" fill="#98AAC6">
            <g id="contact-us" transform="translate(342.000000, 3616.000000)">
                <g id="form">
                    <path d="M107.991133,88 L91.0088674,88 C90.4509637,88 90,88.448 90,89 C90,89.552 90.4509637,90 91.0088674,90 L107.991133,90 C108.548027,90 109,89.552 109,89 C109,88.448 108.548027,88 107.991133,88 Z M86.2957731,101 L86.2957731,84.621173 L110.969513,84.621173 L110.969513,101 L113.600815,99.1908099 L117,96.8519787 L113.600815,94.0105391 L113.600815,83.3105865 C113.600815,82.5867102 113.011838,82 112.285164,82 L84.9801217,82 C84.2544531,82 83.6654755,82.5867102 83.6654755,83.3105865 L83.6654755,95.1308953 L81,97.3565896 L83.6654755,99.1908099 L86.2957731,101 Z M107.991133,93 L91.0088674,93 C90.4509637,93 90,93.448 90,94 C90,94.552 90.4509637,95 91.0088674,95 L107.991133,95 C108.548027,95 109,94.552 109,94 C109,93.448 108.548027,93 107.991133,93 Z M107.991133,98 L91.0088674,98 C90.4509637,98 90,98.448 90,99 C90,99.552 90.4509637,100 91.0088674,100 L107.991133,100 C108.548027,100 109,99.552 109,99 C109,98.448 108.548027,98 107.991133,98 Z M105.23,108.30766 L115.541,116.684553 C116.108,117.144553 116.186,117.96766 115.716,118.521617 C115.452,118.832851 115.072,118.993362 114.689,118.993362 C114.389,118.993362 114.087,118.894511 113.838,118.692894 L102.951,109.84817 L99,112.519106 L95.05,109.84817 L84.162,118.692894 C83.598,119.152894 82.757,119.076553 82.285,118.521617 C81.815,117.96766 81.893,117.144553 82.459,116.684553 L92.77,108.30766 L79,99 L79,110.5 L79,119.954468 C79,121.083915 79.936,122 81.089,122 L116.911,122 C118.065,122 119,121.083915 119,119.954468 L119,99 L105.23,108.30766 Z" id="icon_section_contact_us"></path>
                </g>
            </g>
        </g>
    </g>
</svg>