<?xml version="1.0" encoding="UTF-8" standalone="no"?>
<svg width="379px" height="264px" viewBox="0 0 379 264" version="1.1" xmlns="http://www.w3.org/2000/svg" xmlns:xlink="http://www.w3.org/1999/xlink">
    <!-- Generator: Sketch 39.1 (31720) - http://www.bohemiancoding.com/sketch -->
    <title>institution</title>
    <desc>Created with Sketch.</desc>
    <defs>
        <rect id="path-1" x="0" y="0" width="359" height="244"></rect>
        <filter x="-50%" y="-50%" width="200%" height="200%" filterUnits="objectBoundingBox" id="filter-2">
            <feMorphology radius="1" operator="dilate" in="SourceAlpha" result="shadowSpreadOuter1"></feMorphology>
            <feOffset dx="0" dy="6" in="shadowSpreadOuter1" result="shadowOffsetOuter1"></feOffset>
            <feGaussianBlur stdDeviation="4" in="shadowOffsetOuter1" result="shadowBlurOuter1"></feGaussianBlur>
            <feColorMatrix values="0 0 0 0 0.462745098   0 0 0 0 0.525490196   0 0 0 0 0.57254902  0 0 0 0.2 0" type="matrix" in="shadowBlurOuter1"></feColorMatrix>
        </filter>
    </defs>
    <g id="myU" stroke="none" stroke-width="1" fill="none" fill-rule="evenodd">
        <g id="Large-Devices:-Desktops-landing-fixes-v2" transform="translate(-801.000000, -2595.000000)">
            <g id="see-how-myU" transform="translate(31.000000, 2253.000000)">
                <g id="user-cards" transform="translate(0.000000, 92.000000)">
                    <g id="institution" transform="translate(780.000000, 254.000000)">
                        <g id="bg">
                            <use fill="black" fill-opacity="1" filter="url(#filter-2)" xlink:href="#path-1"></use>
                            <use fill="#FFFFFF" fill-rule="evenodd" xlink:href="#path-1"></use>
                        </g>
                        <g id="instituts" transform="translate(99.000000, 18.000000)">
                            <circle id="Oval-3" fill="#C5A4C8" opacity="0.4" cx="80.5" cy="80.5" r="80.5"></circle>
                            <path d="M153,81 C153,116.175012 120.764653,153 81,153 C41.2353466,153 9,120.764653 9,81 C9,41.2353466 41.2353466,9 81,9 C120.764653,9 153,41.2353466 153,81 L153,81 Z" id="Fill-1" fill="#C5A4C8"></path>
                            <g transform="translate(15.000000, 1.000000)">
                                <polygon id="Fill-3" fill="#A3AAB5" points="66.3907684 59.1981789 65.5796632 59.1981789 16.0819789 59.1981789 16.0819789 125.403705 65.5796632 125.403705 66.3907684 125.403705 115.887874 125.403705 115.887874 59.1981789"></polygon>
                                <polygon id="Fill-5" fill="#FCFBFA" points="16.0822105 121.385579 24.6714737 121.385579 24.6714737 59.6333158 16.0822105 59.6333158"></polygon>
                                <path d="M25.1461526,121.385347 L20.5168895,121.385347 L15.8876263,121.385347 C14.8252579,121.385347 13.9649421,122.398505 13.9649421,123.644979 L13.9649421,125.403821 L20.5168895,125.403821 L27.0682579,125.403821 L27.0682579,123.644979 C27.0682579,122.398505 26.2079421,121.385347 25.1461526,121.385347" id="Fill-7" fill="#47556B"></path>
                                <path d="M13.9655211,59.1981789 L13.9655211,60.9570211 C13.9655211,62.2040737 14.8252579,63.2172316 15.8876263,63.2172316 L20.5168895,63.2172316 L25.1461526,63.2172316 C26.2079421,63.2172316 27.0688368,62.2040737 27.0688368,60.9570211 L27.0688368,59.1981789 L20.5168895,59.1981789 L13.9655211,59.1981789 Z" id="Fill-8" fill="#47556B"></path>
                                <path d="M25.1461526,120.406521 C25.1461526,120.947258 24.7351,121.385521 24.2279421,121.385521 L16.4602053,121.385521 C15.9524684,121.385521 15.5414158,120.947258 15.5414158,120.406521 C15.5414158,119.866363 15.9524684,119.4281 16.4602053,119.4281 L24.2279421,119.4281 C24.7351,119.4281 25.1461526,119.866363 25.1461526,120.406521" id="Fill-9" fill="#192A46"></path>
                                <polygon id="Fill-10" fill="#FCFBFA" points="46.5996842 121.385579 55.1895263 121.385579 55.1895263 59.6333158 46.5996842 59.6333158"></polygon>
                                <path d="M55.6639737,121.385347 L51.0341316,121.385347 L46.4054474,121.385347 C45.3430789,121.385347 44.4827632,122.398505 44.4827632,123.644979 L44.4827632,125.403821 L51.0341316,125.403821 L57.5860789,125.403821 L57.5860789,123.644979 C57.5860789,122.398505 56.7257632,121.385347 55.6639737,121.385347" id="Fill-11" fill="#47556B"></path>
                                <path d="M44.4828789,59.1981789 L44.4828789,60.9570211 C44.4828789,62.2040737 45.3431947,63.2172316 46.4055632,63.2172316 L51.0342474,63.2172316 L55.6640895,63.2172316 C56.7258789,63.2172316 57.5861947,62.2040737 57.5861947,60.9570211 L57.5861947,59.1981789 L51.0342474,59.1981789 L44.4828789,59.1981789 Z" id="Fill-12" fill="#47556B"></path>
                                <path d="M55.6639737,120.406521 C55.6639737,120.947258 55.2523421,121.385521 54.7451842,121.385521 L46.9774474,121.385521 C46.4702895,121.385521 46.0586579,120.947258 46.0586579,120.406521 C46.0586579,119.866363 46.4702895,119.4281 46.9774474,119.4281 L54.7451842,119.4281 C55.2523421,119.4281 55.6639737,119.866363 55.6639737,120.406521" id="Fill-13" fill="#192A46"></path>
                                <polygon id="Fill-14" fill="#FCFBFA" points="77.0274211 121.385579 85.6166842 121.385579 85.6166842 59.6333158 77.0274211 59.6333158"></polygon>
                                <path d="M86.0909,121.385347 L81.4610579,121.385347 L76.8317947,121.385347 C75.7700053,121.385347 74.9096895,122.398505 74.9096895,123.644979 L74.9096895,125.403821 L81.4610579,125.403821 L88.0130053,125.403821 L88.0130053,123.644979 C88.0130053,122.398505 87.1532684,121.385347 86.0909,121.385347" id="Fill-15" fill="#47556B"></path>
                                <path d="M74.9102105,59.1981789 L74.9102105,60.9570211 C74.9102105,62.2040737 75.7699474,63.2172316 76.8317368,63.2172316 L81.4615789,63.2172316 L86.0908421,63.2172316 C87.1532105,63.2172316 88.0129474,62.2040737 88.0129474,60.9570211 L88.0129474,59.1981789 L81.4615789,59.1981789 L74.9102105,59.1981789 Z" id="Fill-16" fill="#47556B"></path>
                                <path d="M86.0909,120.406521 C86.0909,120.947258 85.6792684,121.385521 85.1726895,121.385521 L77.4043737,121.385521 C76.8972158,121.385521 76.4861632,120.947258 76.4861632,120.406521 C76.4861632,119.866363 76.8972158,119.4281 77.4043737,119.4281 L85.1726895,119.4281 C85.6792684,119.4281 86.0909,119.866363 86.0909,120.406521" id="Fill-17" fill="#192A46"></path>
                                <polygon id="Fill-18" fill="#FCFBFA" points="107.490474 121.385579 116.080316 121.385579 116.080316 59.6333158 107.490474 59.6333158"></polygon>
                                <path d="M116.413558,121.385347 L111.784874,121.385347 L107.155032,121.385347 C106.093821,121.385347 105.232926,122.398505 105.232926,123.644979 L105.232926,125.403821 L111.784874,125.403821 L118.336821,125.403821 L118.336821,123.644979 C118.336821,122.398505 117.475926,121.385347 116.413558,121.385347" id="Fill-19" fill="#47556B"></path>
                                <path d="M105.232926,59.1981789 L105.232926,60.9570211 C105.232926,62.2040737 106.093821,63.2172316 107.155032,63.2172316 L111.784874,63.2172316 L116.413558,63.2172316 C117.475926,63.2172316 118.336821,62.2040737 118.336821,60.9570211 L118.336821,59.1981789 L111.784874,59.1981789 L105.232926,59.1981789 Z" id="Fill-20" fill="#47556B"></path>
                                <path d="M116.413558,120.406521 C116.413558,120.947258 116.002505,121.385521 115.495926,121.385521 L107.727611,121.385521 C107.220453,121.385521 106.808821,120.947258 106.808821,120.406521 C106.808821,119.866363 107.220453,119.4281 107.727611,119.4281 L115.495926,119.4281 C116.002505,119.4281 116.413558,119.866363 116.413558,120.406521" id="Fill-21" fill="#192A46"></path>
                                <polygon id="Fill-22" fill="#FFFFFF" points="12.2055789 57.4784737 118.635789 57.4784737 118.635789 52.8851053 12.2055789 52.8851053"></polygon>
                                <path d="M120.072795,58.3383263 C120.072795,58.8142211 119.926321,59.1980632 119.743953,59.1980632 L11.7291632,59.1980632 C11.5479526,59.1980632 11.4009,58.8142211 11.4009,58.3383263 C11.4009,57.8641684 11.5479526,57.4785895 11.7291632,57.4785895 L119.743953,57.4785895 C119.926321,57.4785895 120.072795,57.8641684 120.072795,58.3383263" id="Fill-23" fill="#F2CD57"></path>
                                <path d="M60.1336789,125.403879 L60.1336789,97.8401947 C60.1336789,94.5187737 62.6613632,91.8266684 65.7778368,91.8266684 L66.7180474,91.8266684 C69.8351,91.8266684 72.3622053,94.5187737 72.3622053,97.8401947 L72.3622053,125.403879" id="Fill-24" fill="#FFFFFF"></path>
                                <path d="M38.3571526,84.7478211 L32.0877316,84.7478211 C31.3935737,84.7478211 30.8308368,84.1862421 30.8308368,83.4938211 L30.8308368,73.9695579 C30.8308368,73.2771368 31.3935737,72.7155579 32.0877316,72.7155579 L38.3571526,72.7155579 C39.0513105,72.7155579 39.6140474,73.2771368 39.6140474,73.9695579 L39.6140474,83.4938211 C39.6140474,84.1862421 39.0513105,84.7478211 38.3571526,84.7478211" id="Fill-25" fill="#FFFFFF"></path>
                                <path d="M69.3827105,84.7478211 L63.1132895,84.7478211 C62.4191316,84.7478211 61.8563947,84.1862421 61.8563947,83.4938211 L61.8563947,73.9695579 C61.8563947,73.2771368 62.4191316,72.7155579 63.1132895,72.7155579 L69.3827105,72.7155579 C70.0768684,72.7155579 70.6396053,73.2771368 70.6396053,73.9695579 L70.6396053,83.4938211 C70.6396053,84.1862421 70.0768684,84.7478211 69.3827105,84.7478211" id="Fill-26" fill="#FFFFFF"></path>
                                <path d="M99.8096368,84.7478211 L93.5402158,84.7478211 C92.8460579,84.7478211 92.2833211,84.1862421 92.2833211,83.4938211 L92.2833211,73.9695579 C92.2833211,73.2771368 92.8460579,72.7155579 93.5402158,72.7155579 L99.8096368,72.7155579 C100.503795,72.7155579 101.066532,73.2771368 101.066532,73.9695579 L101.066532,83.4938211 C101.066532,84.1862421 100.503795,84.7478211 99.8096368,84.7478211" id="Fill-27" fill="#FFFFFF"></path>
                                <polygon id="Fill-28" fill="#47556B" points="64.9207053 22.2488895 11.0403895 52.8850474 64.9207053 52.8850474 118.802758 52.8850474"></polygon>
                                <polygon id="Fill-29" fill="#192A46" points="64.9207053 16.8232263 2.08696842 54.0570684 8.98049474 54.0570684 64.9207053 22.2491211 120.862074 54.0570684 127.755021 54.0570684"></polygon>
                                <polygon id="Fill-30" fill="#FFFFFF" points="64.5013158 17.3991053 65.2863684 17.3991053 65.2863684 1.26268421 64.5013158 1.26268421"></polygon>
                                <path d="M64.1284158,9.69013158 C64.1284158,9.69013158 65.0582053,10.2731316 67.0341526,9.18528947 C67.8568368,8.73255263 68.8080474,8.26939474 69.6816789,8.15707895 C70.6948368,8.02797368 71.9945737,8.00713158 73.6874158,9.47534211 C75.1098895,10.7085 77.3035211,9.62934211 77.3035211,9.62934211 L77.3035211,8.1015 L77.3035211,1.52234211 C75.5672579,2.64144737 74.0237842,1.64623684 73.6874158,1.36776316 C71.9638895,-0.0587631579 70.6948368,-0.0790263158 69.6816789,0.0506578947 C68.8080474,0.161815789 67.8568368,0.625552632 67.0341526,1.07828947 C65.0582053,2.16613158 64.1284158,1.58313158 64.1284158,1.58313158" id="Fill-31" fill="#F15A24"></path>
                                <path d="M60.0430158,37.5672579 C60.0430158,34.7958368 62.2933842,32.5506789 65.0700158,32.5506789 C67.8466474,32.5506789 70.0964368,34.7958368 70.0964368,37.5672579 C70.0964368,40.3375211 67.8466474,42.5832579 65.0700158,42.5832579 C62.2933842,42.5832579 60.0430158,40.3375211 60.0430158,37.5672579" id="Fill-32" fill="#FFFFFF"></path>
                                <path d="M112.986189,132.803405 L110.645505,132.803405 C110.005768,132.803405 109.487611,132.285247 109.487611,131.645511 L109.487611,111.107353 C109.487611,110.468195 110.005768,109.949458 110.645505,109.949458 L112.986189,109.949458 C113.625926,109.949458 114.144084,110.468195 114.144084,111.107353 L114.144084,131.645511 C114.144084,132.285247 113.625926,132.803405 112.986189,132.803405" id="Fill-33" fill="#B25F4A"></path>
                                <path d="M131.802153,94.9472526 C131.802153,105.985463 122.853942,114.933674 111.815732,114.933674 C100.777521,114.933674 91.8293105,105.985463 91.8293105,94.9472526 C91.8293105,83.9090421 100.777521,67.5022526 111.815732,67.5022526 C122.853942,67.5022526 131.802153,83.9090421 131.802153,94.9472526" id="Fill-34" fill="#24A587"></path>
                                <path d="M126.329363,87.2931632 C127.485521,92.2744263 124.3841,97.2499 119.402837,98.4060579 C114.420995,99.5616368 109.445521,96.4607947 108.289942,91.4789526 C107.133784,86.4976895 109.454784,78.1602684 114.436626,77.0041105 C119.417889,75.8485316 125.173205,82.3119 126.329363,87.2931632" id="Fill-35" fill="#7CC9B7"></path>
                                <path d="M19.7506526,132.803405 L22.0913368,132.803405 C22.7310737,132.803405 23.2492316,132.285247 23.2492316,131.645511 L23.2492316,111.107353 C23.2492316,110.468195 22.7310737,109.949458 22.0913368,109.949458 L19.7506526,109.949458 C19.1109158,109.949458 18.5927579,110.468195 18.5927579,111.107353 L18.5927579,131.645511 C18.5927579,132.285247 19.1109158,132.803405 19.7506526,132.803405" id="Fill-36" fill="#B25F4A"></path>
                                <path d="M0.934689474,94.9472526 C0.934689474,105.985463 9.8829,114.933674 20.9211105,114.933674 C31.9593211,114.933674 40.9075316,105.985463 40.9075316,94.9472526 C40.9075316,83.9090421 31.9593211,67.5022526 20.9211105,67.5022526 C9.8829,67.5022526 0.934689474,83.9090421 0.934689474,94.9472526" id="Fill-37" fill="#24A587"></path>
                                <path d="M6.40747895,87.2931632 C5.25132105,92.2744263 8.35274211,97.2499 13.3340053,98.4060579 C18.3158474,99.5616368 23.2913211,96.4607947 24.4469,91.4789526 C25.6030579,86.4976895 23.2820579,78.1602684 18.3002158,77.0041105 C13.3189526,75.8485316 7.56363684,82.3119 6.40747895,87.2931632" id="Fill-38" fill="#7CC9B7"></path>
                            </g>
                        </g>
                        <rect id="bg" fill="#C4A5C7" x="0" y="0" width="359" height="7"></rect>
                        <text id="INSTITUTION" font-family="Roboto-Regular, Roboto" font-size="24" font-weight="normal" letter-spacing="1.37142861" fill="#000000">
                            <tspan x="99.9512833" y="217">INSTITUTION</tspan>
                        </text>
                    </g>
                </g>
            </g>
        </g>
    </g>
</svg>