<?xml version="1.0" encoding="UTF-8" standalone="no"?>
<svg width="40px" height="40px" viewBox="0 0 40 40" version="1.1" xmlns="http://www.w3.org/2000/svg" xmlns:xlink="http://www.w3.org/1999/xlink">
    <!-- Generator: Sketch 39.1 (31720) - http://www.bohemiancoding.com/sketch -->
    <title>section-icon</title>
    <desc>Created with Sketch.</desc>
    <defs></defs>
    <g id="myU" stroke="none" stroke-width="1" fill="none" fill-rule="evenodd">
        <g id="Large-Devices:-Desktops-landing-fixes-v1" transform="translate(-452.000000, -763.000000)" fill="#9BAAC6">
            <g id="what-is-myu" transform="translate(196.000000, 760.000000)">
                <g transform="translate(28.000000, 0.000000)" id="txt">
                    <g>
                        <g id="txt+icon" transform="translate(228.000000, 0.000000)">
                            <g id="section-icon" transform="translate(0.000000, 3.000000)">
                                <g id="Group-3">
                                    <path d="M34.130056,5.86056046 C30.3500921,2.08084394 25.3351399,0 19.9901909,0 C14.6452419,0 9.6292898,2.08084394 5.84932587,5.86056046 C-1.4576044,13.1670125 -1.96559955,24.8631353 4.5893379,32.7525436 C3.94634403,34.0464465 2.91435388,35.5523336 1.38436848,36.3042772 C0.648375502,36.6682499 0.233379462,37.4551909 0.36037825,38.26713 C0.487377038,39.0780691 1.11337106,39.7130215 1.92536332,39.840012 C2.30535969,39.8990076 2.84735452,39.9580031 3.50634823,39.9580031 C5.27433136,39.9580031 7.8793065,39.5440342 10.5432811,37.6241782 C13.5112528,39.2220583 16.7592218,40 19.981191,40 C25.1571416,40 30.2820927,37.9961503 34.1390559,34.1394395 C37.9190199,30.359723 40,25.3450991 40,20.0005 C40,14.6559008 37.9110199,9.64027698 34.130056,5.86056046 Z M20,17 C21.6559829,17 23,18.3440171 23,20 C23,21.6559829 21.6559829,23 20,23 C18.3440171,23 17,21.6559829 17,20 C17,18.3440171 18.3440171,17 20,17 Z M30,17 C31.6559829,17 33,18.3440171 33,20 C33,21.6559829 31.6559829,23 30,23 C28.3440171,23 27,21.6559829 27,20 C27,18.3440171 28.3440171,17 30,17 Z M9,17 C10.6559829,17 12,18.3440171 12,20 C12,21.6559829 10.6559829,23 9,23 C7.34401709,23 6,21.6559829 6,20 C6,18.3440171 7.34401709,17 9,17 Z" id="Combined-Shape"></path>
                                </g>
                            </g>
                        </g>
                    </g>
                </g>
            </g>
        </g>
    </g>
</svg>