<?xml version="1.0" encoding="UTF-8" standalone="no"?>
<svg width="32px" height="26px" viewBox="0 0 32 26" version="1.1" xmlns="http://www.w3.org/2000/svg" xmlns:xlink="http://www.w3.org/1999/xlink">
    <!-- Generator: Sketch 39.1 (31720) - http://www.bohemiancoding.com/sketch -->
    <title>twitter-logo-silhouette</title>
    <desc>Created with Sketch.</desc>
    <defs></defs>
    <g id="myU" stroke="none" stroke-width="1" fill="none" fill-rule="evenodd">
        <g id="Large-Devices:-Desktops-landing-fixes-v2" transform="translate(-271.000000, -4330.000000)" fill="#FFFFFF">
            <g id="footer" transform="translate(0.000000, 4302.000000)">
                <g id="footer-" transform="translate(123.000000, 0.000000)">
                    <g id="social" transform="translate(30.000000, 28.000000)">
                        <path d="M150,3.07559146 C148.827592,3.59569148 147.557691,3.95576072 146.230295,4.11329102 C147.587688,3.30063474 148.622608,2.01288709 149.120069,0.477591845 C147.850168,1.23023658 146.445278,1.77784189 144.940395,2.07039815 C143.750488,0.800153876 142.040622,0 140.155769,0 C136.533552,0 133.593782,2.94056549 133.593782,6.56376226 C133.593782,7.0813618 133.653777,7.57895749 133.761269,8.05904982 C128.301695,7.78399692 123.469573,5.17599538 120.227326,1.20023081 C119.65987,2.16791691 119.337396,3.30063474 119.337396,4.50336603 C119.337396,6.77880362 120.499805,8.79169071 122.257167,9.96191575 C121.182251,9.93441046 120.17733,9.63185228 119.289899,9.14175803 L119.289899,9.22177342 C119.289899,12.4048856 121.554722,15.0603962 124.551988,15.6680131 C124.004531,15.813041 123.419577,15.8905559 122.824623,15.8905559 C122.404656,15.8905559 121.994688,15.8530487 121.58472,15.7755338 C122.424654,18.3835353 124.844465,20.2763993 127.716741,20.3364108 C125.469416,22.0942489 122.637138,23.1394499 119.562378,23.1394499 C119.034919,23.1394499 118.51746,23.1094441 118,23.0519331 C120.909773,24.9172918 124.357003,26 128.066714,26 C140.135771,26 146.737755,15.9980766 146.737755,7.32640892 L146.717756,6.47624543 C148.007656,5.54856703 149.120069,4.39584535 150,3.07559146 L150,3.07559146 Z" id="twitter-logo-silhouette"></path>
                    </g>
                </g>
            </g>
        </g>
    </g>
</svg>