<?xml version="1.0" encoding="UTF-8" standalone="no"?>
<svg width="161px" height="161px" viewBox="0 0 161 161" version="1.1" xmlns="http://www.w3.org/2000/svg" xmlns:xlink="http://www.w3.org/1999/xlink">
    <!-- Generator: Sketch 39.1 (31720) - http://www.bohemiancoding.com/sketch -->
    <title>club&amp;dep_illustration</title>
    <desc>Created with Sketch.</desc>
    <defs></defs>
    <g id="myU" stroke="none" stroke-width="1" fill="none" fill-rule="evenodd">
        <g id="Large-Devices:-Desktops-landing-fixes-v2" transform="translate(-130.000000, -2616.000000)">
            <g id="see-how-myU" transform="translate(31.000000, 2253.000000)">
                <g id="user-cards" transform="translate(0.000000, 92.000000)">
                    <g id="club-or-department" transform="translate(0.000000, 254.000000)">
                        <g id="club&amp;dep_illustration" transform="translate(99.000000, 17.000000)">
                            <g id="Group-3" fill="#00B5C2">
                                <circle id="Oval-3" opacity="0.400711287" cx="80.5" cy="80.5" r="80.5"></circle>
                                <path d="M153,81 C153,120.764294 120.764735,153 81.0002872,153 C41.2358395,153 9,120.764294 9,81 C9,41.2357059 41.2358395,9 81.0002872,9 C120.764735,9 153,41.2357059 153,81" id="Fill-1"></path>
                            </g>
                            <g id="red-rect" transform="translate(0.000000, 81.000000)">
                                <path d="M154.980983,36.9444444 L152.711294,36.4126087 C143.12902,34.1647484 138.414866,33.2431797 128.68873,31.7160257 L127.326797,31.5019723 L128.644145,23.0069911 L129.983487,23.1922642 C133.509293,23.6803299 136.504237,24.1246255 139.284577,24.5725187 L142.503636,7.38888889 L143.854274,7.64191558 C148.18856,8.4531599 152.332022,9.34534879 158.631628,10.823936 L161,11.3791557 L159.308731,13.1389503 C155.720505,16.8707941 153.922825,18.7996729 150.699605,22.385217 C152.205399,27.1639437 152.963944,29.7253892 154.349655,34.6857915 L154.980983,36.9444444 Z" id="Fill-33" fill="#B5441B"></path>
                                <path d="M141.644369,28.5 L140.451546,28.3356143 C136.404633,27.7782349 132.364764,27.2679912 128.101828,26.7766017 C123.605259,26.25752 119.035311,25.7997147 114.740089,25.3743152 L113.647059,25.2664923 L113.647059,0 L115.014814,0.120785181 C125.813039,1.07528271 136.260813,2.24365839 146.069323,3.59409564 L147.320261,3.76673007 L147.08428,4.81137458 C146.823643,5.96914474 146.520741,7.03382192 146.228405,8.06314734 C145.969529,8.97168758 145.725916,9.82955697 145.541592,10.6485394 C144.932853,13.3570735 144.420972,15.7509768 143.882088,18.2692006 C143.295068,21.0113188 142.676937,23.900736 141.867437,27.5030804 L141.644369,28.5 Z" id="Fill-34" fill="#F15A24"></path>
                                <path d="M6.6501003,35.8216782 C8.03548825,31.0388663 8.79456416,28.5687119 10.3002136,23.960768 C7.07696887,20.5033625 5.27959619,18.6435087 1.69139973,15.0448192 L0,13.3482527 L2.36891219,12.8120683 C8.66834919,11.3870683 12.8114153,10.5266254 17.1455899,9.74377286 L18.4964473,9.5 L21.7155245,26.0696059 C24.4958261,25.6382263 27.4904549,25.209742 31.0161393,24.7389882 L32.355685,24.560067 L33.6732026,32.7516457 L32.3110335,32.9583604 C22.5847408,34.4308411 17.8707306,35.3190776 8.28851356,37.4869768 L6.01902543,38 L6.6501003,35.8216782 Z" id="Fill-36" fill="#B5441B"></path>
                                <path d="M20.1848074,27.5033645 C19.3752678,23.9009607 18.7573839,21.0113667 18.1706588,18.2692913 C17.6315536,15.7508541 17.1194919,13.3575126 16.5104265,10.6484813 C16.3264135,9.82945817 16.0824346,8.97208017 15.8243461,8.0633657 C15.5315714,7.033686 15.2288024,5.96919191 14.9683623,4.81146608 L14.7320261,3.76644444 L15.9830794,3.59473281 C25.7916188,2.24405267 36.2397944,1.07511543 47.0377712,0.120965237 L48.4052288,0 L48.4052288,25.2663927 L47.3129088,25.3743763 C43.0171166,25.7992298 38.4473625,26.2577176 33.9505081,26.7763929 C29.6882263,27.2679248 25.648171,27.777749 21.6010608,28.3353693 L20.4082098,28.5 L20.1848074,27.5033645 Z" id="Fill-37" fill="#F15A24"></path>
                            </g>
                            <g id="building" transform="translate(40.000000, 43.000000)">
                                <polygon id="Fill-4" fill="#A3AAB5" points="41.8130283 28.1911765 41.2914486 28.1911765 9.46753247 28.1911765 9.46753247 71 41.2914486 71 41.8130283 71 73.6363636 71 73.6363636 28.1911765"></polygon>
                                <path d="M8.41558442,66.8670311 C8.41558442,67.419656 8.86950547,67.8676471 9.41569019,67.8676471 L13.727167,67.8676471 C14.2795101,67.8676471 14.7272727,67.4220617 14.7272727,66.8670311 L14.7272727,28.1911765 L8.41558442,28.1911765 L8.41558442,66.8670311 Z" id="Fill-6" fill="#FCFBFA"></path>
                                <path d="M14.544587,67.8676471 L11.5717187,67.8676471 L8.59885037,67.8676471 C7.91655273,67.8676471 7.36363636,68.6576122 7.36363636,69.6288462 L7.36363636,71 L11.5717187,71 L15.7792208,71 L15.7792208,69.6288462 C15.7792208,68.6576122 15.2268846,67.8676471 14.544587,67.8676471" id="Fill-8" fill="#47556B"></path>
                                <path d="M7.36363636,28.1911765 L7.36363636,29.5620216 C7.36363636,30.5337421 7.91597255,31.3235294 8.59827019,31.3235294 L11.5711385,31.3235294 L14.5440068,31.3235294 C15.2263044,31.3235294 15.7792208,30.5337421 15.7792208,29.5620216 L15.7792208,28.1911765 L11.5711385,28.1911765 L7.36363636,28.1911765 Z" id="Fill-9" fill="#47556B"></path>
                                <path d="M14.7272727,67.3453469 C14.7272727,67.6340119 14.4571619,67.8676471 14.1241242,67.8676471 L9.01932661,67.8676471 C8.68569523,67.8676471 8.41558442,67.6340119 8.41558442,67.3453469 C8.41558442,67.0571646 8.68569523,66.8235294 9.01932661,66.8235294 L14.1241242,66.8235294 C14.4571619,66.8235294 14.7272727,67.0571646 14.7272727,67.3453469" id="Fill-10" fill="#192A46"></path>
                                <path d="M28.4025974,66.8670311 C28.4025974,67.419656 28.8565185,67.8676471 29.4027032,67.8676471 L33.7141799,67.8676471 C34.2665231,67.8676471 34.7142857,67.4220617 34.7142857,66.8670311 L34.7142857,28.1911765 L28.4025974,28.1911765 L28.4025974,66.8670311 Z" id="Fill-11" fill="#FCFBFA"></path>
                                <path d="M34.532095,67.8676471 L31.5584416,67.8676471 L28.5853683,67.8676471 C27.9036038,67.8676471 27.3506494,68.6576122 27.3506494,69.6288462 L27.3506494,71 L31.5584416,71 L35.7662338,71 L35.7662338,69.6288462 C35.7662338,68.6576122 35.2138595,67.8676471 34.532095,67.8676471" id="Fill-12" fill="#47556B"></path>
                                <path d="M27.3506494,28.1911765 L27.3506494,29.5620216 C27.3506494,30.5337421 27.9029855,31.3235294 28.5852832,31.3235294 L31.5581515,31.3235294 L34.5315999,31.3235294 C35.2133174,31.3235294 35.7662338,30.5337421 35.7662338,29.5620216 L35.7662338,28.1911765 L31.5581515,28.1911765 L27.3506494,28.1911765 Z" id="Fill-13" fill="#47556B"></path>
                                <path d="M34.7142857,67.3453469 C34.7142857,67.6340119 34.4435812,67.8676471 34.1105435,67.8676471 L29.0063396,67.8676471 C28.6727082,67.8676471 28.4025974,67.6340119 28.4025974,67.3453469 C28.4025974,67.0571646 28.6727082,66.8235294 29.0063396,66.8235294 L34.1105435,66.8235294 C34.4435812,66.8235294 34.7142857,67.0571646 34.7142857,67.3453469" id="Fill-14" fill="#192A46"></path>
                                <path d="M48.3896104,66.8670311 C48.3896104,67.419656 48.8435314,67.8676471 49.3897162,67.8676471 L53.7011929,67.8676471 C54.2535361,67.8676471 54.7012987,67.4220617 54.7012987,66.8670311 L54.7012987,28.1911765 L48.3896104,28.1911765 L48.3896104,66.8670311 Z" id="Fill-15" fill="#FCFBFA"></path>
                                <path d="M54.5186129,67.8676471 L51.5451645,67.8676471 L48.5722962,67.8676471 C47.8905787,67.8676471 47.3376623,68.6576122 47.3376623,69.6288462 L47.3376623,71 L51.5451645,71 L55.7532468,71 L55.7532468,69.6288462 C55.7532468,68.6576122 55.2009106,67.8676471 54.5186129,67.8676471" id="Fill-16" fill="#47556B"></path>
                                <path d="M47.3376623,28.1911765 L47.3376623,29.5620216 C47.3376623,30.5337421 47.8900366,31.3235294 48.5718011,31.3235294 L51.5454545,31.3235294 L54.5185278,31.3235294 C55.2008725,31.3235294 55.7532468,30.5337421 55.7532468,29.5620216 L55.7532468,28.1911765 L51.5454545,28.1911765 L47.3376623,28.1911765 Z" id="Fill-17" fill="#47556B"></path>
                                <path d="M54.7012987,67.3453469 C54.7012987,67.6340119 54.4305942,67.8676471 54.0981502,67.8676471 L48.9933526,67.8676471 C48.6597212,67.8676471 48.3896104,67.6340119 48.3896104,67.3453469 C48.3896104,67.0571646 48.6597212,66.8235294 48.9933526,66.8235294 L54.0981502,66.8235294 C54.4305942,66.8235294 54.7012987,67.0571646 54.7012987,67.3453469" id="Fill-18" fill="#192A46"></path>
                                <path d="M68.3766234,66.8670311 C68.3766234,67.419656 68.8305444,67.8676471 69.3767292,67.8676471 L73.6882059,67.8676471 C74.2405491,67.8676471 74.6883117,67.4220617 74.6883117,66.8670311 L74.6883117,28.1911765 L68.3766234,28.1911765 L68.3766234,66.8670311 Z" id="Fill-19" fill="#FCFBFA"></path>
                                <path d="M67.3246753,28.1911765 L67.3246753,29.5620216 C67.3246753,30.5337421 67.8775917,31.3235294 68.5593092,31.3235294 L71.5327576,31.3235294 L74.5050457,31.3235294 C75.1873434,31.3235294 75.7402597,30.5337421 75.7402597,29.5620216 L75.7402597,28.1911765 L71.5327576,28.1911765 L67.3246753,28.1911765 Z" id="Fill-21" fill="#47556B"></path>
                                <path d="M74.6883117,67.3453469 C74.6883117,67.6340119 74.4182009,67.8676471 74.0851631,67.8676471 L68.9803656,67.8676471 C68.6473278,67.8676471 68.3766234,67.6340119 68.3766234,67.3453469 C68.3766234,67.0571646 68.6473278,66.8235294 68.9803656,66.8235294 L74.0851631,66.8235294 C74.4182009,66.8235294 74.6883117,67.0571646 74.6883117,67.3453469" id="Fill-22" fill="#192A46"></path>
                                <polygon id="Fill-23" fill="#FFFFFF" points="6.31168831 27.1470588 75.7402597 27.1470588 75.7402597 24.0147059 6.31168831 24.0147059"></polygon>
                                <path d="M76.7922078,27.6691176 C76.7922078,27.9581734 76.6958742,28.1911765 76.5757545,28.1911765 L5.47559892,28.1911765 C5.35666853,28.1911765 5.25974026,27.9581734 5.25974026,27.6691176 C5.25974026,27.381161 5.35666853,27.1470588 5.47559892,27.1470588 L76.5757545,27.1470588 C76.6958742,27.1470588 76.7922078,27.381161 76.7922078,27.6691176" id="Fill-24" fill="#F2CD57"></path>
                                <path d="M37.8701299,71 L37.8701299,52.1427986 C37.8701299,49.8703768 39.3922527,48.0294118 41.269066,48.0294118 L41.8353741,48.0294118 C43.7121874,48.0294118 45.2337662,49.8703768 45.2337662,52.1427986 L45.2337662,71" id="Fill-25" fill="#FFFFFF"></path>
                                <path d="M23.4422544,43.8529412 L19.6876157,43.8529412 C19.2721168,43.8529412 18.9350649,43.5116282 18.9350649,43.0911703 L18.9350649,37.3058885 C18.9350649,36.8854306 19.2721168,36.5441176 19.6876157,36.5441176 L23.4422544,36.5441176 C23.8577533,36.5441176 24.1948052,36.8854306 24.1948052,37.3058885 L24.1948052,43.0911703 C24.1948052,43.5116282 23.8577533,43.8529412 23.4422544,43.8529412" id="Fill-26" fill="#FFFFFF"></path>
                                <path d="M43.4292674,43.8529412 L39.6746287,43.8529412 C39.2591298,43.8529412 38.9220779,43.5116282 38.9220779,43.0911703 L38.9220779,37.3058885 C38.9220779,36.8854306 39.2591298,36.5441176 39.6746287,36.5441176 L43.4292674,36.5441176 C43.8447663,36.5441176 44.1818182,36.8854306 44.1818182,37.3058885 L44.1818182,43.0911703 C44.1818182,43.5116282 43.8447663,43.8529412 43.4292674,43.8529412" id="Fill-27" fill="#FFFFFF"></path>
                                <path d="M63.4162804,43.8529412 L59.6616417,43.8529412 C59.2461428,43.8529412 58.9090909,43.5116282 58.9090909,43.0911703 L58.9090909,37.3058885 C58.9090909,36.8854306 59.2461428,36.5441176 59.6616417,36.5441176 L63.4162804,36.5441176 C63.8317793,36.5441176 64.1688312,36.8854306 64.1688312,37.3058885 L64.1688312,43.0911703 C64.1688312,43.5116282 63.8317793,43.8529412 63.4162804,43.8529412" id="Fill-28" fill="#FFFFFF"></path>
                                <polygon id="Fill-29" fill="#47556B" points="42.0779221 3.17161108 5.25974026 24.0147059 40.4994091 24.0147059 75.7402597 24.0147059"></polygon>
                                <polygon id="Fill-30" fill="#192A46" points="42.0779221 0.977856801 0 24.0147059 5.29826074 24.0147059 42.0779221 4.27202529 75.7098583 24.0147059 81 24.0147059"></polygon>
                                <path d="M38.9220779,14.6176471 C38.9220779,12.887056 40.3348208,11.4852941 42.0782056,11.4852941 C43.8210233,11.4852941 45.2337662,12.887056 45.2337662,14.6176471 C45.2337662,16.3476732 43.8210233,17.75 42.0782056,17.75 C40.3348208,17.75 38.9220779,16.3476732 38.9220779,14.6176471" id="Fill-31" fill="#FFFFFF"></path>
                                <path d="M74.5050457,67.8676471 L71.5321774,67.8676471 L68.5593092,67.8676471 C67.8775917,67.8676471 67.3246753,68.6576122 67.3246753,69.6288462 L67.3246753,71 L71.5321774,71 L75.7402597,71 L75.7402597,69.6288462 C75.7402597,68.6576122 75.1873434,67.8676471 74.5050457,67.8676471" id="Fill-20" fill="#47556B"></path>
                            </g>
                        </g>
                    </g>
                </g>
            </g>
        </g>
    </g>
</svg>