<?xml version="1.0" encoding="UTF-8" standalone="no"?>
<svg width="161px" height="163px" viewBox="0 0 161 163" version="1.1" xmlns="http://www.w3.org/2000/svg" xmlns:xlink="http://www.w3.org/1999/xlink">
    <!-- Generator: Sketch 39.1 (31720) - http://www.bohemiancoding.com/sketch -->
    <title>parent_illustration</title>
    <desc>Created with Sketch.</desc>
    <defs>
        <path d="M153,81 C153,120.764521 120.764593,153 81.0002854,153 C41.235407,153 9,120.764521 9,81 C9,41.235479 41.235407,9 81.0002854,9 C120.764593,9 153,41.235479 153,81" id="path-1"></path>
        <path d="M0.109807226,0.50350923 C5.00615459,1.50759148 10.0836806,2.03576965 15.2884615,2.03576965 C20.4932424,2.03576965 25.5707685,1.50759148 30.4671159,0.50350923 L0.109807226,0.50350923 L0.109807226,0.50350923 Z" id="path-3"></path>
        <path d="M0.319207116,0.421571156 C6.72272377,2.20215399 13.4868572,3.15586299 20.4807692,3.15586299 C27.4746813,3.15586299 34.2388147,2.20215399 40.6423313,0.421571156 L0.319207116,0.421571156 L0.319207116,0.421571156 Z" id="path-5"></path>
        <path d="M0.280961438,0.527843987 C0.785527905,0.758984183 1.29309217,0.984363057 1.80357692,1.20390033 L1.80357692,0.527843987 L0.280961438,0.527843987 L0.280961438,0.527843987 Z" id="path-7"></path>
        <path d="M0.559096154,1.05893067 C1.07894774,0.84793436 1.5961298,0.630254125 2.11056724,0.405977831 L0.559096154,0.405977831 L0.559096154,1.05893067 L0.559096154,1.05893067 Z" id="path-9"></path>
    </defs>
    <g id="myU" stroke="none" stroke-width="1" fill="none" fill-rule="evenodd">
        <g id="Large-Devices:-Desktops-landing-fixes-v2" transform="translate(-910.000000, -2361.000000)">
            <g id="see-how-myU" transform="translate(31.000000, 2253.000000)">
                <g id="user-cards" transform="translate(0.000000, 92.000000)">
                    <g id="parent" transform="translate(780.000000, 0.000000)">
                        <g id="parent_illustration" transform="translate(99.000000, 16.000000)">
                            <g id="body" transform="translate(0.000000, 2.000000)">
                                <circle id="Oval-3" fill="#F9BD3B" opacity="0.4" cx="80.5" cy="80.5" r="80.5"></circle>
                                <mask id="mask-2" fill="white">
                                    <use xlink:href="#path-1"></use>
                                </mask>
                                <use id="Fill-3" fill="#F2BC36" xlink:href="#path-1"></use>
                                <g id="Group-44" mask="url(#mask-2)">
                                    <g transform="translate(31.153846, 88.384615)">
                                        <g id="Group-19" transform="translate(0.000000, 22.401867)"></g>
                                        <g id="Group-22" transform="translate(35.653846, 60.091008)">
                                            <mask id="mask-4" fill="white">
                                                <use xlink:href="#path-3"></use>
                                            </mask>
                                            <g id="Clip-21"></g>
                                            <path d="M19.6083462,35.0148459 C21.8595,36.4396046 19.3262308,38.159508 18.3391154,38.8433249 C17.3514231,39.5265819 -8.36780769,44.8386246 -8.36780769,44.8386246 C-8.36780769,44.8386246 -3.91338462,48.2061852 11.8671923,47.2843484 C27.6477692,46.3630716 38.3946923,43.3909039 38.3946923,43.3909039 L38.3946923,21.5546842 C38.3946923,21.5546842 21.0189231,19.9747926 15.9414231,19.0176728 C10.8639231,18.060553 6.37776923,17.9082204 5.25738462,17.3772961 C4.137,16.8463719 -3.108,4.86249321 -5.51146154,1.31627769 C-6.63069231,-0.335299942 -8.05973077,-0.00095207934 -9.01107692,7.41014551 C-9.96242308,14.8206831 -10.3281923,25.4442084 -10.3281923,25.4442084 C-10.3281923,25.4442084 -1.548,27.8848917 1.55526923,29.2620465" id="Fill-20" fill="#D18F72" mask="url(#mask-4)"></path>
                                        </g>
                                        <g id="Group-27" transform="translate(30.461538, 58.970914)">
                                            <mask id="mask-6" fill="white">
                                                <use xlink:href="#path-5"></use>
                                            </mask>
                                            <g id="Clip-26"></g>
                                            <path d="M55.7401154,34.1588706 C55.7401154,34.1588706 60.6324231,25.8886614 34.4833846,23.0234626 C11.4283846,20.496532 10.4406923,17.3261078 10.4406923,17.3261078 C10.4406923,17.3261078 6.70107692,9.29783882 3.49511538,7.22622619 C0.289730769,5.15461355 1.09107692,1.27012984 -0.511615385,0.493345112 C-2.11488462,-0.283999667 -4.51892308,5.41335511 -0.511615385,9.81588199 C-0.511615385,9.81588199 -7.85815385,6.70818302 -8.39238462,7.61489857 C-8.92661538,8.52105409 -9.32757692,12.0174255 -8.39238462,12.1467962 C-7.64469231,12.2504049 -9.68353846,11.6287531 -9.99507692,14.4771504 C-10.3296923,17.5333251 -9.06046154,18.1028926 -9.06046154,18.1028926 C-9.06046154,18.1028926 -10.6187308,16.980559 -10.9302692,19.7863929 C-11.0733462,21.0733801 -10.9302692,23.411575 -7.85815385,24.7064029 C-4.78603846,26.0012308 6.70107692,27.2960587 6.70107692,27.2960587 C6.70107692,27.2960587 27.1351154,38.0371938 43.833,38.0433543 C55.9881923,38.0478347 55.7401154,34.1588706 55.7401154,34.1588706" id="Fill-25" fill="#FFD9CD" mask="url(#mask-6)"></path>
                                        </g>
                                        <g id="Group-38" transform="translate(21.230769, 55.610634)">
                                            <mask id="mask-8" fill="white">
                                                <use xlink:href="#path-7"></use>
                                            </mask>
                                            <g id="Clip-37"></g>
                                            <polygon id="Fill-36" fill="#D5191F" mask="url(#mask-8)" points="-1.95680769 15.4553279 1.80357692 0.527843987 -3.79661538 14.7020652"></polygon>
                                        </g>
                                        <g id="Group-10" transform="translate(31.384615, 0.000000)"></g>
                                        <g id="Group-41" transform="translate(74.307692, 57.290774)">
                                            <mask id="mask-10" fill="white">
                                                <use xlink:href="#path-9"></use>
                                            </mask>
                                            <g id="Clip-40"></g>
                                            <polygon id="Fill-39" fill="#D5191F" mask="url(#mask-10)" points="3.44948077 13.9411858 0.559096154 0.405977831 5.43755769 13.1268779"></polygon>
                                        </g>
                                    </g>
                                </g>
                                <path d="M132.241788,148.970632 C132.241788,148.970632 124.798327,126.128009 119.628519,122.230084 C114.459288,118.332159 92.6942885,111.092996 92.6942885,111.092996 L81.7183269,111.092996 L70.7417885,111.092996 C70.7417885,111.092996 48.9773654,118.332159 43.8075577,122.230084 C38.63775,126.128009 31.1948654,148.970632 31.1948654,148.970632 L52.6794808,157.770646 C52.6794808,157.770646 47.3879423,170.988867 61.5762115,176.728225 C61.5762115,176.728225 62.9983269,190.673947 58.7423654,208.270054 C58.7423654,208.270054 65.06025,214.395284 81.7183269,214.395284 C98.3758269,214.395284 106.360442,209.998358 106.360442,209.998358 C102.104481,192.402252 101.860442,176.728225 101.860442,176.728225 C116.048135,170.988867 110.757173,157.770646 110.757173,157.770646 L132.241788,148.970632 Z" id="Fill-17" fill="#00BFBF" mask="url(#mask-2)"></path>
                            </g>
                            <g id="Group-12" transform="translate(20.000000, 0.000000)" fill="#B55232">
                                <path d="M47.7824851,2.40311225 C51.2094575,3.52594342 87.6175523,-6.86390397 96.8540424,10.70464 C106.091102,28.2737068 90.9984219,84.2401493 101.517252,91.9102152 C112.036082,99.5802812 119.3539,96.224856 119.3539,96.224856 C119.3539,96.224856 80.5860266,129.036826 56.2414891,102.881342 C31.8969515,76.7258579 47.7824851,2.40311225 47.7824851,2.40311225" id="Fill-5"></path>
                                <path d="M30.1546085,7.08305214 C7.66897999,19.0672248 26.7356045,82.2286978 15.8445373,91.2796851 C4.95403928,100.330672 0.318719124,94.5213718 0.318719124,94.5213718 C0.318719124,94.5213718 23.0608528,124.093192 61.2874456,108.319783 C99.5140385,92.5463741 89.2725847,8.78330899 89.2725847,8.78330899 C89.2725847,8.78330899 53.377312,-5.2941501 30.1546085,7.08305214 Z" id="Fill-7"></path>
                            </g>
                            <g id="Group-6" transform="translate(68.000000, 90.000000)">
                                <path d="M24.9687331,23.7499872 C14.4565269,16.6072018 18.6698269,0.601763389 18.6698269,0.601763389 L14.1482644,0.601763389 L9.62670188,0.601763389 C9.62670188,0.601763389 13.8394331,16.6072018 3.32722688,23.7499872 C-7.18441062,30.8927726 14.1482644,30.4722713 14.1482644,30.4722713 C14.1482644,30.4722713 35.4809394,30.8927726 24.9687331,23.7499872" id="Fill-23" fill="#FFCBBA"></path>
                                <path d="M10.2201196,4.30008613 L17.9863344,4.30008613 C17.9863344,4.30008613 18.0053562,11.4278648 18.1356,12.0491512 C18.2658437,12.6704376 8.617,17.1249978 8.617,17.1249978 C8.617,17.1249978 10.9585437,10.4784383 10.3442937,5.16968108" id="Fill-42" fill="#E8A49E"></path>
                            </g>
                            <g id="Group-11" transform="translate(64.000000, 113.000000)">
                                <path d="M18.7816696,6.44723226 C18.7816696,6.44723226 19.6134851,24.1285945 5.80851488,14.9163104 L18.7816696,6.44723226 Z" id="Fill-28" fill="#008080"></path>
                                <path d="M18.808869,6.44723226 C18.808869,6.44723226 17.977619,24.1285945 31.7820238,14.9163104 L18.808869,6.44723226 Z" id="Fill-30" fill="#008080"></path>
                                <path d="M8.04084524,0.287926582 L18.7990298,6.44696946 C18.7990298,6.44696946 15.4774226,18.7655808 8.38748214,16.0713281 C1.29754167,13.3765497 -4.70781548,7.60224991 8.04084524,0.287926582" id="Fill-32" fill="#F9F9FA"></path>
                                <path d="M29.5400238,0.287926582 L18.7818393,6.44696946 C18.7818393,6.44696946 22.1034464,18.7655808 29.1933869,16.0713281 C36.2833274,13.3765497 42.2886845,7.60224991 29.5400238,0.287926582" id="Fill-34" fill="#F9F9FA"></path>
                            </g>
                            <g id="head" transform="translate(35.000000, 2.000000)">
                                <path d="M70.559941,58.7717868 C70.559941,64.3869327 75.8825994,68.9383506 82.4478995,68.9383506 C89.013773,68.9383506 91.9973747,64.3869327 91.9973747,58.7717868 C91.9973747,53.1566408 89.013773,48.6052229 82.4478995,48.6052229 C75.8825994,48.6052229 70.559941,53.1566408 70.559941,58.7717868" id="Fill-9" fill="#FABCA5"></path>
                                <path d="M88.517175,59.046314 C88.517175,61.317408 86.8261042,63.1581653 84.7399341,63.1581653 C82.6531905,63.1581653 80.9621197,61.317408 80.9621197,59.046314 C80.9621197,56.7752199 82.6531905,54.9344627 84.7399341,54.9344627 C86.8261042,54.9344627 88.517175,56.7752199 88.517175,59.046314" id="Fill-11" fill="#BB8D7C"></path>
                                <path d="M21.8290026,58.7049784 C21.8290026,64.313938 16.5063443,68.8603415 9.94104422,68.8603415 C3.3751707,68.8603415 0.391568964,64.313938 0.391568964,58.7049784 C0.391568964,53.0960188 3.3751707,48.5496154 9.94104422,48.5496154 C16.5063443,48.5496154 21.8290026,53.0960188 21.8290026,58.7049784 L21.8290026,58.7049784 Z" id="Fill-45" fill="#FABCA5"></path>
                                <path d="M3.87182599,58.9792032 C3.87182599,61.2477951 5.56289682,63.0865243 7.64906694,63.0865243 C9.7358105,63.0865243 11.4268813,61.2477951 11.4268813,58.9792032 C11.4268813,56.7106112 9.7358105,54.871882 7.64906694,54.871882 C5.56289682,54.871882 3.87182599,56.7106112 3.87182599,58.9792032" id="Fill-47" fill="#BB8D7C"></path>
                                <path d="M84.8367305,50.7187511 C84.8367305,76.8689262 67.4580962,98.068189 46.021236,98.068189 C24.5838023,98.068189 7.20516802,76.8689262 7.20516802,50.7187511 C7.20516802,24.568576 24.5838023,3.36931329 46.021236,3.36931329 C67.4580962,3.36931329 84.8367305,24.568576 84.8367305,50.7187511" id="Fill-49" fill="#FFD8CB"></path>
                                <path d="M47.8279121,51.9054258 C47.2183467,50.3092867 44.9555575,50.3092867 44.3454186,51.9054258 C42.5970039,56.4812167 40.205191,63.2201506 40.5297573,65.0427455 C40.7878047,66.4902189 42.2328703,67.521659 43.5844654,68.184316 C45.1602751,68.9564555 47.0130556,68.9564555 48.5894387,68.184316 C49.9410338,67.521659 51.385526,66.4902189 51.6435734,65.0427455 C51.9687132,63.2201506 49.5763268,56.4812167 47.8279121,51.9054258" id="Fill-51" fill="#FABCA5"></path>
                                <path d="M46.0703797,85.1077123 C50.9268323,85.1077123 54.8640627,83.2027174 54.8640627,80.3215998 L37.2766967,80.3215998 C37.2766967,83.2027174 41.2139271,85.1077123 46.0703797,85.1077123" id="Fill-53" fill="#F15A24"></path>
                                <path d="M25.8981239,15.0755819 C25.8981239,15.0755819 29.7980807,41.6827022 51.6013683,43.2333197 C73.4046559,44.7839371 78.0196909,29.9006602 84.8367305,50.7190392 C84.8367305,50.7190392 95.7395212,0.346156667 46.817169,0.346156667 C-0.336698229,0.346156667 7.1472507,48.8728191 7.1472507,48.8728191 C7.1472507,48.8728191 12.4263277,20.477101 25.8981239,15.0755819" id="Fill-55" fill="#B55232"></path>
                                <path d="M33.7061804,9.0644183 C33.7061804,9.0644183 33.8231619,9.16237629 34.0427889,9.34503914 C34.2635629,9.52366843 34.5869823,9.78585012 34.9992848,10.1194835 C35.8284772,10.7746497 37.0149219,11.6937261 38.4812048,12.7107606 C39.2088985,13.2264807 40.0122862,13.758335 40.8649896,14.3063235 C41.7222805,14.8485498 42.6323278,15.4040293 43.5911173,15.9416458 C44.0676449,16.215352 44.5653897,16.4683141 45.0579736,16.7420203 C45.5654669,16.9869153 46.0660789,17.2606214 46.5861878,17.5009066 C47.1034296,17.749259 47.6286995,17.9889679 48.1608506,18.216 C48.6878408,18.4574376 49.229167,18.6654543 49.7704931,18.8746235 C50.3055115,19.1016555 50.8600267,19.270489 51.4013529,19.471591 C51.9512806,19.6456105 52.4994881,19.8184776 53.0425346,19.9907684 C53.5947561,20.1284858 54.1372291,20.2950144 54.6802756,20.4246647 C55.2267627,20.5399094 55.7623545,20.6839653 56.2973728,20.7801946 C57.3651157,20.9910924 58.4076274,21.1460965 59.4048373,21.2647986 C59.9054493,21.3137776 60.3922988,21.3616041 60.8636655,21.407702 C61.3378993,21.4319034 61.7966503,21.4555285 62.2370512,21.4785775 C62.6797459,21.5200656 63.1023703,21.4918306 63.5083649,21.5068124 C63.9126392,21.5079649 64.3020041,21.5385047 64.6626971,21.5143033 C65.3846565,21.4710866 66.0292016,21.4906782 66.5527512,21.446309 C67.0757273,21.4007873 67.494911,21.3875342 67.7793366,21.3685188 C68.066056,21.3564181 68.2185907,21.3495034 68.2185907,21.3495034 C68.2185907,21.3495034 68.0775248,21.4059733 67.8125961,21.5125747 C67.5453736,21.6116851 67.1554353,21.7724515 66.6485154,21.9481996 C66.1433159,22.1308625 65.5148271,22.2950862 64.7894271,22.4886973 C64.4281606,22.5952986 64.0342082,22.6517685 63.6219058,22.7422356 C63.2073096,22.8188734 62.7714961,22.91856 62.3110248,22.9652341 C61.8488332,23.0176705 61.3677181,23.0724117 60.8699733,23.1288816 C60.3682144,23.1507781 59.8498258,23.1732508 59.3165278,23.196876 C58.2482114,23.2055193 57.1168168,23.1651837 55.953883,23.0320761 C54.7903758,22.9024258 53.5970498,22.6869182 52.4008566,22.397654 C51.8084944,22.2363114 51.2069572,22.0818835 50.614595,21.892306 C50.029114,21.6842893 49.4275768,21.5091173 48.8506974,21.2705608 C47.6889105,20.8164967 46.5512081,20.3019291 45.4719964,19.7234007 C44.3876237,19.1552443 43.3588746,18.5277369 42.3995116,17.8725708 C41.4355611,17.2243193 40.5484514,16.5363085 39.7313012,15.8609745 C38.9204588,15.1769972 38.1807229,14.5016633 37.5315902,13.8453447 C36.8755763,13.1970933 36.3176204,12.5586376 35.8307709,11.9922099 C35.343348,11.425206 34.949969,10.9042999 34.6334308,10.4709799 C34.0009279,9.60491594 33.7061804,9.0644183 33.7061804,9.0644183" id="Fill-57" fill="#E0663E"></path>
                                <path d="M33.5804826,9.0644183 C33.5804826,9.0644183 33.6504422,9.24420003 33.7817596,9.58129078 C33.9084896,9.91838153 34.1223822,10.4035617 34.3827234,11.0189684 C34.9251965,12.2434434 35.720556,13.974995 36.8410553,15.9427983 C37.3852486,16.9339027 38.0332344,17.9705288 38.7334031,19.0474905 C39.4524953,20.1123516 40.2340923,21.2140909 41.112027,22.2916288 C41.3213321,22.5693686 41.5587358,22.8269405 41.7863909,23.0954606 C42.0174868,23.3610997 42.2394075,23.6382632 42.4813987,23.8987162 C42.9762763,24.4104027 43.4493633,24.9543577 43.9797941,25.4464525 C44.9999416,26.4750115 46.1376441,27.4015789 47.2948434,28.2935729 C48.4807147,29.1463837 49.7009924,29.954249 50.9757467,30.6209396 C51.2940052,30.7886207 51.6105434,30.9557255 51.9259347,31.1222541 C52.2470603,31.2772582 52.5739204,31.4167043 52.8944727,31.5642175 C53.2178921,31.7053922 53.5332834,31.8627013 53.8578498,31.9900467 C54.1852833,32.112206 54.5098496,32.2343654 54.8315487,32.3547961 C55.1555416,32.4706171 55.4692126,32.6117918 55.7949258,32.70514 C56.1194921,32.8036742 56.4411913,32.9004798 56.7594498,32.9967091 C57.0782817,33.091786 57.3908058,33.1995398 57.7061971,33.2819398 C58.0238822,33.3556964 58.3381266,33.4288768 58.6477835,33.5014809 C58.9580139,33.57639 59.2642302,33.6495704 59.5658589,33.7227507 C59.8669143,33.7993885 60.1719837,33.8281996 60.4678781,33.8869744 C61.0619606,33.9860849 61.6359728,34.1036345 62.1927818,34.1791198 C62.752458,34.2436568 63.2886232,34.3053127 63.7989837,34.3646637 C64.310491,34.4430301 64.7990608,34.4695364 65.2589587,34.4931616 C66.1787544,34.5323448 66.9895968,34.6331839 67.6553592,34.6164734 C68.321695,34.6193545 68.8509789,34.6447083 69.2116719,34.651623 C69.5735117,34.6654524 69.7667606,34.6729433 69.7667606,34.6729433 C69.7667606,34.6729433 69.5792461,34.7167363 69.2283016,34.79856 C68.8756368,34.8728929 68.3589685,34.9973571 67.694353,35.125855 C67.0326047,35.2820115 66.2166014,35.365564 65.2761618,35.4756226 C64.3357223,35.6185261 63.2662591,35.6173736 62.0918566,35.664624 C61.5058022,35.6692337 60.8956634,35.6185261 60.2608667,35.5960534 C59.9437551,35.5764618 59.6191887,35.5747331 59.294049,35.5309401 C58.9677623,35.4888758 58.6368882,35.4468115 58.3014265,35.4041709 C57.964818,35.3586493 57.6241954,35.3125514 57.2789852,35.2658773 C56.9360689,35.2082549 56.5925791,35.1247025 56.2427815,35.0532508 C55.8929838,34.9771893 55.540319,34.8999754 55.1836401,34.8221852 C54.8263878,34.7449712 54.4783105,34.6193545 54.1199113,34.5179392 C53.7632324,34.4096092 53.4036863,34.3001267 53.041273,34.1894918 C52.6823003,34.0690611 52.3313558,33.9175143 51.9718098,33.7803731 C51.6151309,33.6380459 51.2515707,33.5026334 50.8931715,33.3510866 C50.5433739,33.1799482 50.1918559,33.0082336 49.8386177,32.8359428 C48.4176365,32.1594564 47.0752164,31.2801393 45.7723636,30.3576055 C44.5159593,29.3734157 43.2819192,28.3523477 42.2193372,27.1987482 C41.1246426,26.0779935 40.1635593,24.8713815 39.3068418,23.6618883 C38.4449634,22.4547001 37.7224306,21.2187007 37.082473,20.0299516 C36.464306,18.8285256 35.9264205,17.6737737 35.5066634,16.5777966 C35.0714234,15.4893104 34.7491508,14.4642088 34.4842221,13.5537756 C34.213559,12.6450712 34.0375133,11.8360534 33.8993146,11.1716677 C33.6303718,9.83943891 33.5804826,9.0644183 33.5804826,9.0644183" id="Fill-59" fill="#E0663E"></path>
                                <path d="M20.1037549,39.3892174 C20.1037549,39.3892174 25.4476304,34.0510829 30.8247655,34.9384671 C36.2019005,35.8258513 39.374737,38.7046639 37.8218649,40.8608923 C36.2695662,43.0171206 31.8850537,35.1211299 20.1037549,39.3892174" id="Fill-61" fill="#2B1918"></path>
                                <path d="M28.445052,41.1099937 C20.8859826,41.1099937 14.7364256,47.280195 14.7364256,54.8644488 C14.7364256,62.4487025 20.8859826,68.6189038 28.445052,68.6189038 C36.0041215,68.6189038 42.153105,62.4487025 42.153105,54.8644488 C42.153105,47.280195 36.0041215,41.1099937 28.445052,41.1099937 M28.445052,70.3475743 C19.937515,70.3475743 13.0161094,63.4023524 13.0161094,54.8644488 C13.0161094,46.3271213 19.937515,39.3813232 28.445052,39.3813232 C36.9525891,39.3813232 43.8734212,46.3271213 43.8734212,54.8644488 C43.8734212,63.4023524 36.9525891,70.3475743 28.445052,70.3475743" id="Fill-63" fill="#000000"></path>
                                <path d="M63.8661333,41.1099937 C56.3070639,41.1099937 50.1575069,47.280195 50.1575069,54.8644488 C50.1575069,62.4487025 56.3070639,68.6189038 63.8661333,68.6189038 C71.4252028,68.6189038 77.5741863,62.4487025 77.5741863,54.8644488 C77.5741863,47.280195 71.4252028,41.1099937 63.8661333,41.1099937 M63.8661333,70.3475743 C55.3585963,70.3475743 48.4371907,63.4023524 48.4371907,54.8644488 C48.4371907,46.3271213 55.3585963,39.3813232 63.8661333,39.3813232 C72.3736704,39.3813232 79.2945025,46.3271213 79.2945025,54.8644488 C79.2945025,63.4023524 72.3736704,70.3475743 63.8661333,70.3475743" id="Fill-65" fill="#000000"></path>
                                <path d="M13.8761529,49.7054621 C13.8761529,49.7054621 9.02027364,51.9988316 9.02027364,54.7214877 C9.02027364,57.4441438 13.8761529,58.0174862 13.8761529,58.0174862 L13.8761529,49.7054621 Z" id="Fill-67" fill="#000000"></path>
                                <path d="M77.5775123,49.7054621 C77.5775123,49.7054621 82.4333915,51.9988316 82.4333915,54.7214877 C82.4333915,57.4441438 77.5775123,58.0174862 77.5775123,58.0174862 L77.5775123,49.7054621 Z" id="Fill-69" fill="#000000"></path>
                                <polygon id="Fill-71" fill="#000000" points="43.0134925 53.8609555 49.2972342 53.8609555 49.2972342 49.7058078 43.0134925 49.7058078"></polygon>
                                <path d="M57.6530967,75.9941613 C57.6530967,76.6297358 57.139869,77.1448797 56.5062192,77.1448797 C55.8725694,77.1448797 55.3593417,76.6297358 55.3593417,75.9941613 C55.3593417,75.3585868 55.8725694,74.843443 56.5062192,74.843443 C57.139869,74.843443 57.6530967,75.3585868 57.6530967,75.9941613" id="Fill-73" fill="#000000"></path>
                                <path d="M83.0193312,68.5008356 C83.0193312,66.0495808 84.9994151,64.062186 87.4428376,64.062186 C89.8856866,64.062186 91.8657705,66.0495808 91.8657705,68.5008356 C91.8657705,70.9520904 89.8856866,72.9394853 87.4428376,72.9394853 C84.9994151,72.9394853 83.0193312,70.9520904 83.0193312,68.5008356" id="Fill-74" fill="#00BFBF"></path>
                                <path d="M28.7588377,50.2387569 C25.9082738,50.2387569 23.5978891,52.6629292 23.5978891,54.3915997 L33.9197863,54.3915997 C33.9197863,52.6629292 31.6094017,50.2387569 28.7588377,50.2387569" id="Fill-75" fill="#2B1918"></path>
                                <path d="M63.7386006,50.2387569 C60.8880366,50.2387569 58.577652,52.6629292 58.577652,54.3915997 L68.8995492,54.3915997 C68.8995492,52.6629292 66.5891645,50.2387569 63.7386006,50.2387569" id="Fill-76" fill="#2B1918"></path>
                                <path d="M0.444153296,68.5008356 C0.444153296,66.0495808 2.42423725,64.062186 4.8676597,64.062186 C7.31050871,64.062186 9.29059266,66.0495808 9.29059266,68.5008356 C9.29059266,70.9520904 7.31050871,72.9394853 4.8676597,72.9394853 C2.42423725,72.9394853 0.444153296,70.9520904 0.444153296,68.5008356" id="Fill-77" fill="#00BFBF"></path>
                            </g>
                        </g>
                    </g>
                </g>
            </g>
        </g>
    </g>
</svg>