<?xml version="1.0" encoding="UTF-8" standalone="no"?>
<svg width="255px" height="323px" viewBox="0 0 255 323" version="1.1" xmlns="http://www.w3.org/2000/svg" xmlns:xlink="http://www.w3.org/1999/xlink">
    <!-- Generator: Sketch 39.1 (31720) - http://www.bohemiancoding.com/sketch -->
    <title>parent_testimonials</title>
    <desc>Created with Sketch.</desc>
    <defs>
        <rect id="path-1" x="0" y="0" width="235" height="303"></rect>
        <filter x="-50%" y="-50%" width="200%" height="200%" filterUnits="objectBoundingBox" id="filter-3">
            <feMorphology radius="1" operator="dilate" in="SourceAlpha" result="shadowSpreadOuter1"></feMorphology>
            <feOffset dx="0" dy="6" in="shadowSpreadOuter1" result="shadowOffsetOuter1"></feOffset>
            <feGaussianBlur stdDeviation="4" in="shadowOffsetOuter1" result="shadowBlurOuter1"></feGaussianBlur>
            <feColorMatrix values="0 0 0 0 0.462745098   0 0 0 0 0.525490196   0 0 0 0 0.57254902  0 0 0 0.2 0" type="matrix" in="shadowBlurOuter1"></feColorMatrix>
        </filter>
        <rect id="path-4" x="24" y="31" width="187" height="241"></rect>
        <path d="M0.17111626,0.784635217 C7.80125757,2.34933005 15.7137357,3.1724077 23.8245192,3.1724077 C31.9353028,3.1724077 39.8477809,2.34933005 47.4779222,0.784635217 L0.17111626,0.784635217 L0.17111626,0.784635217 Z" id="path-6"></path>
        <path d="M0.497431089,0.656948385 C10.4762445,3.43168996 21.0170191,4.91788649 31.9158654,4.91788649 C42.8147117,4.91788649 53.3554862,3.43168996 63.3342997,0.656948385 L0.497431089,0.656948385 L0.497431089,0.656948385 Z" id="path-8"></path>
        <path d="M0.437831575,0.82255688 C1.22411432,1.18275035 2.01506864,1.53396576 2.81057404,1.87607801 L2.81057404,0.82255688 L0.437831575,0.82255688 L0.437831575,0.82255688 Z" id="path-10"></path>
        <path d="M0.871258173,1.65016695 C1.68136023,1.32136438 2.48730227,0.982146011 3.28896729,0.632648787 L0.871258173,0.632648787 L0.871258173,1.65016695 L0.871258173,1.65016695 Z" id="path-12"></path>
    </defs>
    <g id="myU" stroke="none" stroke-width="1" fill="none" fill-rule="evenodd">
        <g id="Large-Devices:-Desktops-landing-fixes-v2" transform="translate(-239.000000, -3146.000000)">
            <g id="users-testimonials" transform="translate(2.000000, 2992.000000)">
                <g id="testimonial" transform="translate(0.000000, 88.000000)">
                    <g id="review" transform="translate(217.000000, 38.000000)">
                        <g id="parent_testimonials" transform="translate(30.000000, 32.000000)">
                            <mask id="mask-2" fill="white">
                                <use xlink:href="#path-1"></use>
                            </mask>
                            <g id="Rectangle-15">
                                <use fill="black" fill-opacity="1" filter="url(#filter-3)" xlink:href="#path-1"></use>
                                <use fill="#FFFFFF" fill-rule="evenodd" xlink:href="#path-1"></use>
                            </g>
                            <rect id="Rectangle-6" fill="#F2BC36" mask="url(#mask-2)" x="0" y="0" width="235" height="7"></rect>
                            <mask id="mask-5" fill="white">
                                <use xlink:href="#path-4"></use>
                            </mask>
                            <use id="Mask" fill="#B6D1DF" xlink:href="#path-4"></use>
                            <g id="parent" mask="url(#mask-5)">
                                <g transform="translate(24.000000, 69.000000)">
                                    <g id="body" transform="translate(17.141667, 140.250000)">
                                        <g id="Group-44" transform="translate(0.239744, 0.599359)">
                                            <g id="Group-19" transform="translate(0.000000, 34.909576)"></g>
                                            <g id="Group-22" transform="translate(55.560577, 93.641820)">
                                                <mask id="mask-7" fill="white">
                                                    <use xlink:href="#path-6"></use>
                                                </mask>
                                                <g id="Clip-21"></g>
                                                <path d="M30.5563394,54.5648015 C34.0643875,56.7850506 30.1167096,59.4652332 28.5784548,60.530848 C27.039301,61.5955901 -13.0398337,69.8735233 -13.0398337,69.8735233 C-13.0398337,69.8735233 -6.09835769,75.1213052 18.4930413,73.6847762 C43.0844404,72.2491199 59.8317288,67.6174919 59.8317288,67.6174919 L59.8317288,33.5893829 C59.8317288,33.5893829 32.7544885,31.1273851 24.842051,29.6358735 C16.9296135,28.1443618 9.93869038,27.9069767 8.19275769,27.0796198 C6.446825,26.2522628 -4.8433,7.57738525 -8.58869423,2.0511994 C-10.3328288,-0.522509076 -12.5597471,-0.00148365697 -14.0422615,11.5474768 C-15.524776,23.0955644 -16.0947663,39.650558 -16.0947663,39.650558 C-16.0947663,39.650558 -2.4123,43.4539563 2.42362788,45.6000225" id="Fill-20" fill="#D18F72" mask="url(#mask-7)"></path>
                                            </g>
                                            <g id="Group-27" transform="translate(47.469231, 91.896341)">
                                                <mask id="mask-9" fill="white">
                                                    <use xlink:href="#path-8"></use>
                                                </mask>
                                                <g id="Clip-26"></g>
                                                <path d="M86.8616798,53.2309066 C86.8616798,53.2309066 94.485526,40.343164 53.7366077,35.8782293 C17.8092327,31.9404291 16.2700788,26.9998514 16.2700788,26.9998514 C16.2700788,26.9998514 10.4425115,14.4891322 5.44655481,11.2608691 C0.451497115,8.03260612 1.70026154,1.97928567 -0.797267308,0.768796133 C-3.29569519,-0.442566147 -7.04198846,8.43581172 -0.797267308,15.2964161 C-0.797267308,15.2964161 -12.2456231,10.4535852 -13.0781327,11.8665503 C-13.9106423,13.2786426 -14.535474,18.7271547 -13.0781327,18.9287575 C-11.9129788,19.0902143 -15.0901808,18.1214735 -15.5756615,22.5602261 C-16.0971038,27.322765 -14.1192192,28.2103409 -14.1192192,28.2103409 C-14.1192192,28.2103409 -16.5475221,26.4613712 -17.0330029,30.8337955 C-17.2559644,32.8393507 -17.0330029,36.4830377 -12.2456231,38.5008111 C-7.45824327,40.5185846 10.4425115,42.5363581 10.4425115,42.5363581 C10.4425115,42.5363581 42.2855548,59.274627 68.306425,59.2842271 C87.2482663,59.291209 86.8616798,53.2309066 86.8616798,53.2309066" id="Fill-25" fill="#FFD9CD" mask="url(#mask-9)"></path>
                                            </g>
                                            <g id="Group-38" transform="translate(33.084615, 86.659905)">
                                                <mask id="mask-11" fill="white">
                                                    <use xlink:href="#path-10"></use>
                                                </mask>
                                                <g id="Clip-37"></g>
                                                <polygon id="Fill-36" fill="#D5191F" mask="url(#mask-11)" points="-3.04935865 24.0845527 2.81057404 0.82255688 -5.91639231 22.9107182"></polygon>
                                            </g>
                                            <g id="Group-10" transform="translate(48.907692, 0.000000)"></g>
                                            <g id="Group-41" transform="translate(115.796154, 89.278123)">
                                                <mask id="mask-13" fill="white">
                                                    <use xlink:href="#path-12"></use>
                                                </mask>
                                                <g id="Clip-40"></g>
                                                <polygon id="Fill-39" fill="#D5191F" mask="url(#mask-13)" points="5.37544087 21.7250145 0.871258173 0.632648787 8.4735274 20.4560514"></polygon>
                                            </g>
                                        </g>
                                        <path d="M157.768454,95.0125685 C157.768454,95.0125685 146.169059,59.4161468 138.112776,53.3418807 C130.057391,47.2676145 96.1402662,35.986585 96.1402662,35.986585 L79.0360595,35.986585 L61.9309537,35.986585 C61.9309537,35.986585 28.0147277,47.2676145 19.9584441,53.3418807 C11.9021604,59.4161468 0.303665224,95.0125685 0.303665224,95.0125685 L33.7838575,108.725923 C33.7838575,108.725923 25.5378768,129.324318 47.6479296,138.268151 C47.6479296,138.268151 49.8640595,160.000235 43.2318527,187.420834 C43.2318527,187.420834 53.0772229,196.965985 79.0360595,196.965985 C104.993997,196.965985 117.436689,190.114108 117.436689,190.114108 C110.804483,162.693509 110.424189,138.268151 110.424189,138.268151 C132.533343,129.324318 124.288261,108.725923 124.288261,108.725923 L157.768454,95.0125685 Z" id="Fill-17" fill="#00BFBF"></path>
                                    </g>
                                    <g id="Group-12">
                                        <path d="M74.4610393,3.74484993 C79.8014045,5.49459516 136.537352,-10.6962504 150.930883,16.6813974 C165.3253,44.0598598 141.805874,131.274233 158.197718,143.226752 C174.589561,155.179271 185.993161,149.950401 185.993161,149.950401 C185.993161,149.950401 125.579892,201.082388 87.6429872,160.323425 C49.7060828,119.564462 74.4610393,3.74484993 74.4610393,3.74484993" id="Fill-5" fill="#B55232"></path>
                                        <path d="M46.9909315,11.0377563 C11.9508272,29.7130919 41.6629837,128.139721 24.6910706,142.244176 C7.72004455,156.348631 0.496670635,147.295804 0.496670635,147.295804 C0.496670635,147.295804 35.9364956,193.378557 95.5062695,168.798328 C155.076043,144.2181 139.116445,13.6873232 139.116445,13.6873232 C139.116445,13.6873232 83.1796445,-8.25005057 46.9909315,11.0377563 Z" id="Fill-7" fill="#B55232"></path>
                                    </g>
                                    <g id="Group-6" transform="translate(74.800000, 140.250000)">
                                        <path d="M38.9096091,37.0103967 C22.5280877,25.8795561 29.0938135,0.937747948 29.0938135,0.937747948 L22.047712,0.937747948 L15.0016104,0.937747948 C15.0016104,0.937747948 21.56645,25.8795561 5.18492855,37.0103967 C-11.1957066,48.1412373 22.047712,47.4859561 22.047712,47.4859561 C22.047712,47.4859561 55.2911305,48.1412373 38.9096091,37.0103967" id="Fill-23" fill="#FFCBBA"></path>
                                        <path d="M15.926353,6.70096756 L28.0287044,6.70096756 C28.0287044,6.70096756 28.0583468,17.8084227 28.26131,18.776594 C28.4642732,19.7447652 13.4281583,26.6864548 13.4281583,26.6864548 C13.4281583,26.6864548 17.077064,16.3288997 16.1198578,8.05608634" id="Fill-42" fill="#E8A49E"></path>
                                    </g>
                                    <g id="Group-11" transform="translate(68.566667, 176.091667)">
                                        <path d="M29.2681019,10.0469369 C29.2681019,10.0469369 30.5643476,37.6003931 9.05160236,23.2445837 L29.2681019,10.0469369 Z" id="Fill-28" fill="#008080"></path>
                                        <path d="M29.3104876,10.0469369 C29.3104876,10.0469369 28.015123,37.6003931 49.5269871,23.2445837 L29.3104876,10.0469369 Z" id="Fill-30" fill="#008080"></path>
                                        <path d="M12.5303172,0.44868559 L29.2951547,10.0465274 C29.2951547,10.0465274 24.1189836,29.2430301 13.070493,25.0444862 C2.02200243,20.8451233 -7.33634578,11.8468394 12.5303172,0.44868559" id="Fill-32" fill="#F9F9FA"></path>
                                        <path d="M46.0332038,0.44868559 L29.2683662,10.0465274 C29.2683662,10.0465274 34.4445374,29.2430301 45.4930279,25.0444862 C56.5415185,20.8451233 65.8998667,11.8468394 46.0332038,0.44868559" id="Fill-34" fill="#F9F9FA"></path>
                                    </g>
                                    <g id="head" transform="translate(23.375000, 3.116667)">
                                        <path d="M109.955908,91.5860344 C109.955908,100.336303 118.250384,107.42893 128.48131,107.42893 C138.71313,107.42893 143.362576,100.336303 143.362576,91.5860344 C143.362576,82.8357653 138.71313,75.7431391 128.48131,75.7431391 C118.250384,75.7431391 109.955908,82.8357653 109.955908,91.5860344" id="Fill-9" fill="#FABCA5"></path>
                                        <path d="M137.939264,92.0138393 C137.939264,95.5529609 135.304012,98.4214742 132.053064,98.4214742 C128.801222,98.4214742 126.16597,95.5529609 126.16597,92.0138393 C126.16597,88.4747177 128.801222,85.6062044 132.053064,85.6062044 C135.304012,85.6062044 137.939264,88.4747177 137.939264,92.0138393" id="Fill-11" fill="#BB8D7C"></path>
                                        <path d="M34.0168624,91.4819247 C34.0168624,100.222553 25.7223865,107.307365 15.4914606,107.307365 C5.25964101,107.307365 0.61019497,100.222553 0.61019497,91.4819247 C0.61019497,82.741296 5.25964101,75.6564839 15.4914606,75.6564839 C25.7223865,75.6564839 34.0168624,82.741296 34.0168624,91.4819247 L34.0168624,91.4819247 Z" id="Fill-45" fill="#FABCA5"></path>
                                        <path d="M6.0335955,91.9092583 C6.0335955,95.4444807 8.66884755,98.3098337 11.919796,98.3098337 C15.171638,98.3098337 17.8068901,95.4444807 17.8068901,91.9092583 C17.8068901,88.3740359 15.171638,85.5086828 11.919796,85.5086828 C8.66884755,85.5086828 6.0335955,88.3740359 6.0335955,91.9092583" id="Fill-47" fill="#BB8D7C"></path>
                                        <path d="M132.203905,79.0367205 C132.203905,119.78741 105.1222,152.822928 71.7164261,152.822928 C38.3097586,152.822928 11.2280535,119.78741 11.2280535,79.0367205 C11.2280535,38.286031 38.3097586,5.2505132 71.7164261,5.2505132 C105.1222,5.2505132 132.203905,38.286031 132.203905,79.0367205" id="Fill-49" fill="#FFD8CB"></path>
                                        <path d="M74.5318297,80.8859552 C73.5819236,78.3986384 70.0557437,78.3986384 69.104944,80.8859552 C66.3803311,88.0165626 62.6530893,98.5180679 63.1588718,101.358278 C63.5609957,103.613925 65.8128896,105.221252 67.9191253,106.253893 C70.374762,107.457143 73.2620117,107.457143 75.718542,106.253893 C77.8247777,105.221252 80.075778,103.613925 80.4779019,101.358278 C80.984578,98.5180679 77.2564426,88.0165626 74.5318297,80.8859552" id="Fill-51" fill="#FABCA5"></path>
                                        <path d="M71.7930084,132.626185 C79.3609804,132.626185 85.4964977,129.657568 85.4964977,125.167826 L58.089519,125.167826 C58.089519,129.657568 64.2250363,132.626185 71.7930084,132.626185" id="Fill-53" fill="#F15A24"></path>
                                        <path d="M40.3579098,23.4927818 C40.3579098,23.4927818 46.4353425,64.9555443 80.4121323,67.3719232 C114.388922,69.788302 121.580685,46.5951955 132.203905,79.0371695 C132.203905,79.0371695 149.194087,0.539427472 72.956755,0.539427472 C-0.524688074,0.539427472 11.137799,76.1601431 11.137799,76.1601431 C11.137799,76.1601431 19.3643607,31.9101491 40.3579098,23.4927818" id="Fill-55" fill="#B55232"></path>
                                        <path d="M52.5254645,14.1253852 C52.5254645,14.1253852 52.7077606,14.2780364 53.0500128,14.562686 C53.3940521,14.84105 53.8980474,15.2496164 54.5405521,15.7695285 C55.8327103,16.7904957 57.6815866,18.2227232 59.9665441,19.807602 C61.1005335,20.6112657 62.3524793,21.440072 63.6812754,22.2940208 C65.0172204,23.1389902 66.4353774,24.0046123 67.9294912,24.8423981 C68.67208,25.2689235 69.4477323,25.6631228 70.2153422,26.0896483 C71.0061859,26.4712763 71.7863063,26.8978017 72.5968094,27.2722462 C73.4028444,27.6592619 74.22139,28.0328084 75.0506589,28.3866 C75.8718853,28.7628403 76.7154519,29.0869997 77.5590185,29.4129549 C78.3927554,29.7667465 79.256875,30.0298454 80.1004416,30.3432293 C80.9574123,30.6144097 81.8117023,30.8837942 82.6579497,31.1522807 C83.5184949,31.3668904 84.3638487,31.6263974 85.2100961,31.8284358 C86.0617052,32.0080255 86.8963357,32.2325125 87.7300726,32.3824699 C89.393972,32.711119 91.0185526,32.9526671 92.5725382,33.1376444 C93.3526586,33.21397 94.1113323,33.2884997 94.8458787,33.3603356 C95.5848931,33.3980494 96.29978,33.4348653 96.9860715,33.4707832 C97.6759374,33.5354355 98.334527,33.4914361 98.967202,33.5147827 C99.5971961,33.5165786 100.203956,33.5641699 100.766036,33.526456 C101.89109,33.4591099 102.895506,33.4896402 103.711371,33.4204981 C104.526342,33.3495602 105.17957,33.3289074 105.6228,33.2992751 C106.069604,33.2804182 106.307304,33.2696428 106.307304,33.2696428 C106.307304,33.2696428 106.087476,33.3576418 105.674629,33.5237622 C105.258207,33.6782093 104.650553,33.9287369 103.860603,34.2026111 C103.073334,34.4872607 102.093939,34.743176 100.963524,35.0448866 C100.40055,35.211007 99.7866412,35.299006 99.1441365,35.4399839 C98.4980574,35.559411 97.8189148,35.714756 97.101347,35.7874898 C96.3810984,35.8692031 95.6313607,35.9545082 94.8557084,36.0425072 C94.0738008,36.0766292 93.2659785,36.1116492 92.4349224,36.1484651 C90.7701294,36.1619343 89.0070395,36.0990779 87.194801,35.8916519 C85.381669,35.6896135 83.5220693,35.3537808 81.6580016,34.9030108 C80.7349038,34.6515853 79.7975083,34.4109351 78.8744105,34.1155101 C77.962036,33.7913508 77.0246405,33.5183745 76.1256701,33.1466239 C74.3152189,32.4390407 72.5422993,31.6371728 70.8605277,30.7356327 C69.1707136,29.8502557 67.5675796,28.87239 66.0725723,27.8514228 C64.5704161,26.841231 63.1880034,25.7690807 61.914611,24.7166853 C60.6510483,23.6508207 59.4982931,22.5984253 58.4867281,21.5756622 C57.4644397,20.5654703 56.5949585,19.5705436 55.8362847,18.6878605 C55.0767173,17.8042793 54.4637017,16.9925341 53.9704297,16.317277 C52.9847793,14.9676607 52.5254645,14.1253852 52.5254645,14.1253852" id="Fill-57" fill="#E0663E"></path>
                                        <path d="M52.3295854,14.1253852 C52.3295854,14.1253852 52.4386057,14.405545 52.6432421,14.9308448 C52.8407296,15.4561446 53.1740457,16.212217 53.579744,17.1712258 C54.4250978,19.0793659 55.6645331,21.7777005 57.4106445,24.844194 C58.2586791,26.388665 59.268457,28.004074 60.3595532,29.6823394 C61.4801385,31.3417478 62.6981271,33.058625 64.0662421,34.7377883 C64.3924092,35.1705994 64.7623632,35.5719823 65.1171259,35.9904262 C65.4772502,36.4043803 65.8230768,36.8362935 66.2001796,37.2421661 C66.9713639,38.0395442 67.7085911,38.8872074 68.5351791,39.6540552 C70.124909,41.2568929 71.8978287,42.7007938 73.701131,44.0908177 C75.5491138,45.4197812 77.4507131,46.6787047 79.4372052,47.7176309 C79.9331581,47.9789339 80.4264301,48.2393389 80.9179148,48.4988459 C81.4183357,48.740394 81.9276927,48.9576975 82.4272199,49.1875723 C82.9312152,49.4075696 83.4227,49.6527095 83.9284825,49.851156 C84.4387331,50.0415211 84.9445156,50.2318861 85.4458301,50.4195573 C85.950719,50.6000449 86.439523,50.8200423 86.9470927,50.9655099 C87.4528752,51.119059 87.9541897,51.2699144 88.4501425,51.4198717 C88.946989,51.5680332 89.4340057,51.7359495 89.9254905,51.8643561 C90.4205497,51.9792935 90.9102473,52.0933329 91.392796,52.2064744 C91.8762383,52.3232077 92.3534253,52.4372471 92.8234635,52.5512866 C93.2926081,52.6707137 93.7680079,52.7156111 94.22911,52.8072018 C95.1548886,52.9616489 96.0493909,53.1448304 96.9170849,53.2624616 C97.789247,53.3630318 98.6247711,53.4591123 99.4200829,53.551601 C100.217182,53.6737219 100.978536,53.7150276 101.695211,53.7518434 C103.128559,53.8129039 104.392122,53.9700449 105.429601,53.9440044 C106.467975,53.9484941 107.292775,53.9880038 107.854855,53.9987792 C108.418722,54.02033 108.719869,54.0320033 108.719869,54.0320033 C108.719869,54.0320033 108.427659,54.1002474 107.88077,54.227756 C107.331201,54.3435914 106.526059,54.5375482 105.490367,54.7377907 C104.459142,54.9811347 103.187537,55.1113372 101.722019,55.2828453 C100.256501,55.5055365 98.5899204,55.5037406 96.7598098,55.5773723 C95.8465417,55.5845559 94.8957421,55.5055365 93.9065172,55.4705165 C93.4123516,55.4399862 92.9065691,55.4372924 92.399893,55.3690483 C91.8914296,55.3034981 91.3758174,55.2379479 90.8530563,55.1714997 C90.328508,55.1005618 89.7977044,55.0287259 89.259752,54.9559921 C88.725374,54.8661973 88.1901024,54.7359948 87.6450011,54.6246492 C87.0998998,54.50612 86.5503304,54.3857949 85.9945058,54.2645719 C85.4377876,54.1442468 84.8953671,53.9484941 84.3368617,53.7904552 C83.7810371,53.6216409 83.2207444,53.4510308 82.6559838,53.2786247 C82.0965847,53.0909535 81.5496962,52.8547931 80.9894035,52.6410814 C80.4335789,52.4192882 79.867031,52.2082703 79.3085256,51.9721099 C78.7634243,51.7054193 78.2156421,51.4378307 77.6651792,51.1693441 C75.4508168,50.1151528 73.3588789,48.7448837 71.3285999,47.3072685 C69.3707033,45.7735728 67.4476574,44.1824085 65.7918004,42.384716 C64.0859014,40.6382065 62.5882133,38.7579028 61.2531619,36.8731093 C59.910068,34.9919077 58.7841211,33.0658086 57.7868538,31.2133412 C56.8235436,29.341119 55.9853386,27.5416307 55.3312171,25.833733 C54.6529681,24.1375087 54.15076,22.5400587 53.7379128,21.1213003 C53.3161294,19.7052359 53.0417916,18.4445165 52.8264319,17.4091821 C52.4073294,15.3331256 52.3295854,14.1253852 52.3295854,14.1253852" id="Fill-59" fill="#E0663E"></path>
                                        <path d="M31.3283513,61.3815305 C31.3283513,61.3815305 39.6558908,53.0629375 48.0352595,54.4457779 C56.4146282,55.8286183 61.3589652,60.3147679 58.9390728,63.6748905 C56.5200741,67.035013 49.687542,54.7304275 31.3283513,61.3815305" id="Fill-61" fill="#2B1918"></path>
                                        <path d="M44.3268728,64.0630735 C32.5473229,64.0630735 22.9642633,73.6783039 22.9642633,85.4970993 C22.9642633,97.3158948 32.5473229,106.931125 44.3268728,106.931125 C56.1064226,106.931125 65.6885886,97.3158948 65.6885886,85.4970993 C65.6885886,73.6783039 56.1064226,64.0630735 44.3268728,64.0630735 M44.3268728,109.62497 C31.0692942,109.62497 20.2834372,98.8019992 20.2834372,85.4970993 C20.2834372,72.1930974 31.0692942,61.3692286 44.3268728,61.3692286 C57.5844514,61.3692286 68.3694147,72.1930974 68.3694147,85.4970993 C68.3694147,98.8019992 57.5844514,109.62497 44.3268728,109.62497" id="Fill-63" fill="#000000"></path>
                                        <path d="M99.5247245,64.0630735 C87.7451746,64.0630735 78.162115,73.6783039 78.162115,85.4970993 C78.162115,97.3158948 87.7451746,106.931125 99.5247245,106.931125 C111.304274,106.931125 120.88644,97.3158948 120.88644,85.4970993 C120.88644,73.6783039 111.304274,64.0630735 99.5247245,64.0630735 M99.5247245,109.62497 C86.2671459,109.62497 75.4812889,98.8019992 75.4812889,85.4970993 C75.4812889,72.1930974 86.2671459,61.3692286 99.5247245,61.3692286 C112.782303,61.3692286 123.567266,72.1930974 123.567266,85.4970993 C123.567266,98.8019992 112.782303,109.62497 99.5247245,109.62497" id="Fill-65" fill="#000000"></path>
                                        <path d="M21.6236715,77.4576784 C21.6236715,77.4576784 14.0565931,81.0315126 14.0565931,85.2743183 C14.0565931,89.517124 21.6236715,90.4105826 21.6236715,90.4105826 L21.6236715,77.4576784 Z" id="Fill-67" fill="#000000"></path>
                                        <path d="M120.891623,77.4576784 C120.891623,77.4576784 128.458702,81.0315126 128.458702,85.2743183 C128.458702,89.517124 120.891623,90.4105826 120.891623,90.4105826 L120.891623,77.4576784 Z" id="Fill-69" fill="#000000"></path>
                                        <polygon id="Fill-71" fill="#000000" points="67.0293591 83.9333224 76.8215232 83.9333224 76.8215232 77.4582172 67.0293591 77.4582172"></polygon>
                                        <path d="M89.8427423,118.424235 C89.8427423,119.414672 89.0429625,120.217437 88.0555249,120.217437 C87.0680873,120.217437 86.2683075,119.414672 86.2683075,118.424235 C86.2683075,117.433798 87.0680873,116.631032 88.0555249,116.631032 C89.0429625,116.631032 89.8427423,117.433798 89.8427423,118.424235" id="Fill-73" fill="#000000"></path>
                                        <path d="M129.371791,106.747136 C129.371791,102.927263 132.457422,99.8302398 136.265089,99.8302398 C140.071862,99.8302398 143.157492,102.927263 143.157492,106.747136 C143.157492,110.567008 140.071862,113.664031 136.265089,113.664031 C132.457422,113.664031 129.371791,110.567008 129.371791,106.747136" id="Fill-74" fill="#00BFBF"></path>
                                        <path d="M44.8158555,78.2887296 C40.3737266,78.2887296 36.7733772,82.0663981 36.7733772,84.7602429 L52.8583337,84.7602429 C52.8583337,82.0663981 49.2579843,78.2887296 44.8158555,78.2887296" id="Fill-75" fill="#2B1918"></path>
                                        <path d="M99.3259859,78.2887296 C94.8838571,78.2887296 91.2835076,82.0663981 91.2835076,84.7602429 L107.368464,84.7602429 C107.368464,82.0663981 103.768115,78.2887296 99.3259859,78.2887296" id="Fill-76" fill="#2B1918"></path>
                                        <path d="M0.692138887,106.747136 C0.692138887,102.927263 3.77776971,99.8302398 7.58543637,99.8302398 C11.3922094,99.8302398 14.4778402,102.927263 14.4778402,106.747136 C14.4778402,110.567008 11.3922094,113.664031 7.58543637,113.664031 C3.77776971,113.664031 0.692138887,110.567008 0.692138887,106.747136" id="Fill-77" fill="#00BFBF"></path>
                                    </g>
                                </g>
                            </g>
                        </g>
                    </g>
                </g>
            </g>
        </g>
    </g>
</svg>