<?xml version="1.0" encoding="UTF-8" standalone="no"?>
<svg width="310px" height="314px" viewBox="0 0 310 314" version="1.1" xmlns="http://www.w3.org/2000/svg" xmlns:xlink="http://www.w3.org/1999/xlink">
    <!-- Generator: Sketch 39.1 (31720) - http://www.bohemiancoding.com/sketch -->
    <title>professor_illustration</title>
    <desc>Created with Sketch.</desc>
    <defs>
        <path d="M0,138.257669 C0,214.615441 62.0679576,276.515337 138.63354,276.515337 C215.198031,276.515337 277.267081,214.615441 277.267081,138.257669 C277.267081,61.899896 215.198031,0 138.63354,0 C62.0679576,0 0,61.899896 0,138.257669" id="path-1"></path>
    </defs>
    <g id="myU" stroke="none" stroke-width="1" fill="none" fill-rule="evenodd">
        <g id="Large-Devices:-Desktops-landing-fixes-v2" transform="translate(-445.000000, -2380.000000)">
            <g id="see-how-myU" transform="translate(31.000000, 2253.000000)">
                <g id="user-cards" transform="translate(0.000000, 92.000000)">
                    <g id="educator" transform="translate(369.000000, 0.000000)">
                        <g transform="translate(44.000000, 35.000000)" id="professor_illustration">
                            <g transform="translate(0.329193, 0.000000)">
                                <ellipse id="Oval-3" fill="#00A687" opacity="0.400711287" cx="155.670807" cy="158.840491" rx="155" ry="155"></ellipse>
                                <g id="bogy" transform="translate(18.000000, 21.122699)">
                                    <mask id="mask-2" fill="white">
                                        <use xlink:href="#path-1"></use>
                                    </mask>
                                    <use id="Fill-1" fill="#24A587" xlink:href="#path-1"></use>
                                    <g id="body" mask="url(#mask-2)">
                                        <g transform="translate(35.793916, 219.620278)">
                                            <path d="M150.586107,137.120848 C151.906627,125.420403 156.281194,97.4741566 156.804336,94.1415456 L200.113873,76.5561974 C200.113873,76.5561974 185.444976,30.9043041 175.256375,23.1152065 C165.068876,15.3250251 122.174548,0.858784044 122.174548,0.858784044 L100.542908,0.858784044 L78.9123691,0.858784044 C78.9123691,0.858784044 36.0180412,15.3250251 25.830542,23.1152065 C15.6419414,30.9043041 0.973043846,76.5561974 0.973043846,76.5561974 L44.2308176,93.8099102 C44.2308176,93.8099102 49.0954862,124.669346 50.5008104,137.120848 C51.9061346,149.572349 46.1229391,178.930755 46.1229391,178.930755 C46.1229391,178.930755 72.2436871,187.375537 100.262063,187.48825 L100.262063,187.493669 C100.355678,187.493669 100.449293,187.490418 100.542908,187.490418 C100.637624,187.490418 100.731239,187.493669 100.824854,187.493669 L100.824854,187.48825 C128.84323,187.375537 154.963978,178.930755 154.963978,178.930755 C154.963978,178.930755 149.180783,149.572349 150.586107,137.120848" id="Fill-3" fill="#F2ECEC"></path>
                                            <polygon id="Fill-18" fill="#AEAFCD" points="39.2979913 19.6152343 47.7018363 75.6263177 44.2303771 93.8099102 40.6785192 92.3934151 44.8173973 73.7307936"></polygon>
                                            <polygon id="Fill-21" fill="#AEAFCD" points="161.738063 19.6151842 153.360631 72.0566307 156.83209 90.2402232 160.383948 88.8237281 156.24507 70.1611066"></polygon>
                                            <polygon id="Fill-66" fill="#6E5F8A" points="99.5076397 22.2640843 92.6048709 31.7150443 94.8538622 40.242222 103.394068 40.242222 108.009191 32.5914666"></polygon>
                                            <path d="M103.393737,40.1013453 L114.55801,65.6781131 C114.55801,65.6781131 99.6983176,65.7609821 97.2030537,65.6781134 C95.0081049,65.6039678 85.8920724,65.1269505 85.8920724,65.1269505 L94.853531,40.1013453" id="Fill-70" fill="#AEAFCD"></path>
                                            <polygon id="Fill-14" fill="#B3B3BF" points="96.126159 28.1239853 81.2223033 43.8615603 70.990539 45.3263434"></polygon>
                                            <polygon id="Fill-16" fill="#B3B3BF" points="103.933657 28.1365481 121.134763 47.1213851 129.135335 45.4093528"></polygon>
                                            <path d="M74.5068539,4.10653536 L96.1263793,28.1240937 C96.1263793,28.1240937 71.1190974,46.037826 70.9263609,45.2835179 C70.7347258,44.5292099 46.4212952,20.0933141 74.5068539,4.10653536" id="Fill-10" fill="#FFFDFD"></path>
                                            <path d="M117.459553,4.10653536 L139.079079,28.1240937 C139.079079,28.1240937 114.071797,46.037826 113.87906,45.2835179 C113.687425,44.5292099 89.3739946,20.0933141 117.459553,4.10653536" id="Fill-10" fill="#FFFDFD" transform="translate(121.503250, 24.706612) scale(-1, 1) translate(-121.503250, -24.706612) "></path>
                                        </g>
                                    </g>
                                </g>
                                <g id="head" transform="translate(66.136646, 0.000000)">
                                    <path d="M42.1668566,149.234667 C42.1668566,159.926443 31.9514112,168.594059 19.349436,168.594059 C6.74746074,168.594059 1.02088618,159.926443 1.02088618,149.234667 C1.02088618,138.542891 6.74746074,129.875275 19.349436,129.875275 C31.9514112,129.875275 42.1668566,138.542891 42.1668566,149.234667" id="Fill-44" fill="#BD857F"></path>
                                    <path d="M7.70097545,149.75742 C7.70097545,154.081912 10.9466561,157.586658 14.9516374,157.586658 C18.9555214,157.586658 22.2012021,154.081912 22.2012021,149.75742 C22.2012021,145.432927 18.9555214,141.928181 14.9516374,141.928181 C10.9466561,141.928181 7.70097545,145.432927 7.70097545,149.75742" id="Fill-46" fill="#805358"></path>
                                    <path d="M135.698091,149.234667 C135.698091,159.926443 145.913537,168.594059 158.515512,168.594059 C171.117487,168.594059 176.844062,159.926443 176.844062,149.234667 C176.844062,138.542891 171.117487,129.875275 158.515512,129.875275 C145.913537,129.875275 135.698091,138.542891 135.698091,149.234667" id="Fill-48" fill="#BD857F"></path>
                                    <path d="M170.163973,149.75742 C170.163973,154.081912 166.918292,157.586658 162.913311,157.586658 C158.909427,157.586658 155.663746,154.081912 155.663746,149.75742 C155.663746,145.432927 158.909427,141.928181 162.913311,141.928181 C166.918292,141.928181 170.163973,145.432927 170.163973,149.75742" id="Fill-50" fill="#805358"></path>
                                    <path d="M163.099954,134.010502 C163.099954,183.860526 129.744495,224.272504 88.5996216,224.272504 C47.4536513,224.272504 14.0992896,183.860526 14.0992896,134.010502 C14.0992896,115.74374 6.39985031,90.9376354 14.0992896,76.7301539 C27.4111889,52.1629591 62.5310341,43.7485004 88.5996216,43.7485004 C110.625921,43.7485004 149.461072,46.7556995 163.099954,65.1671226 C174.938239,81.1477995 163.099954,110.847179 163.099954,134.010502" id="Fill-52" fill="#BD857F"></path>
                                    <path d="M96.1308517,127.096684 C95.4308029,120.4072 84.2409951,119.852666 82.5907233,126.509272 C79.8245431,137.670101 74.1254,154.736833 74.942855,158.970365 C75.5924301,162.332641 79.2254418,164.727222 82.6258355,166.264795 C86.5891211,168.058813 91.2491636,168.058813 95.2135464,166.264795 C98.6128428,164.727222 102.246952,162.332641 102.89543,158.970365 C103.712885,154.736833 97.3279571,138.531493 96.1308517,127.096684" id="Fill-54" fill="#805358"></path>
                                    <path d="M122.728097,128.248823 C122.728097,131.825899 119.818176,134.724602 116.22686,134.724602 C112.636641,134.724602 109.726721,131.825899 109.726721,128.248823 C109.726721,124.671746 112.636641,121.773043 116.22686,121.773043 C119.818176,121.773043 122.728097,124.671746 122.728097,128.248823" id="Fill-56" fill="#000000"></path>
                                    <path d="M63.8068126,128.248823 C63.8068126,131.825899 60.896892,134.724602 57.305576,134.724602 C53.7153572,134.724602 50.8054365,131.825899 50.8054365,128.248823 C50.8054365,124.671746 53.7153572,121.773043 57.305576,121.773043 C60.896892,121.773043 63.8068126,124.671746 63.8068126,128.248823" id="Fill-58" fill="#000000"></path>
                                    <path d="M203.631242,97.6142969 C203.631242,97.6142969 196.111752,90.7987826 188.59336,72.3029738 C181.076065,53.806069 170.738824,40.1750404 156.642388,35.3080684 C142.547048,30.4400004 145.364799,16.8122595 146.774772,15.8379884 C146.796717,15.8226455 146.810982,15.8149741 146.830732,15.8018231 C145.950734,16.1492291 143.459965,16.7454085 138.788949,15.8379884 C131.26946,14.3771296 97.9074175,-11.9073687 54.6777596,8.04929885 C11.4502963,28.0059664 17.0890904,43.095662 17.0890904,43.095662 C17.0890904,43.095662 0.684028852,44.3691187 0.643430412,72.9572368 C0.555650001,132.661756 15.2083951,145.316322 15.2083951,145.316322 C15.2083951,145.316322 18.9675912,88.3647486 22.2560648,82.5235054 C25.546733,76.6833582 30.2462768,73.7616407 42.9338379,80.577155 C55.6192045,87.3926693 73.4737401,96.6411217 100.72846,84.4709518 C127.979889,72.3029738 135.497184,65.0019678 153.823539,72.7895614 C155.627427,73.556704 157.562985,74.4148078 159.578642,75.335379 C159.926472,80.0642653 160.953503,94.5533978 161.341931,105.402986 C161.810459,118.545236 162.751904,145.316322 162.751904,145.316322 C162.751904,145.316322 169.864312,137.527632 170.268102,106.862749 C170.41294,95.8684995 170.45683,85.6972841 170.471094,80.5081122 C186.719248,88.4633812 203.631242,97.6142969 203.631242,97.6142969" id="Fill-60" fill="#160D0C"></path>
                                    <path d="M130.028245,102.290579 C114.563531,97.7140254 102.903001,101.943173 104.771626,110.36092" id="Fill-62" fill="#100713"></path>
                                    <path d="M49.5755232,102.290579 C65.0402371,97.7140254 76.7007675,101.943173 74.832142,110.36092" id="Fill-64" fill="#100713"></path>
                                    <path d="M112.418507,205.10435 C102.21952,212.18398 95.9234705,206.474247 97.8359862,202.135508 C99.7485019,197.796768 94.489358,198.025815 88.7518109,198.025815 C82.3778558,198.025815 77.596018,197.796768 79.5096309,202.135508 C81.4210494,206.474247 75.0448998,212.18398 64.8459133,205.10435 C54.6469268,198.025815 49.8650889,192.545129 54.3276255,191.175231 C58.7912594,189.805334 88.7518109,190.719329 88.7518109,182.726799 C88.7518109,190.719329 118.593859,189.805334 123.056396,191.175231 C127.518932,192.545129 122.617493,198.025815 112.418507,205.10435 M162.939425,166.628859 C163.257629,154.755683 166.47149,141.735081 164.505208,140.383814 C160.521075,137.644019 158.277188,150.987917 154.771458,162.862189 C151.264631,174.735365 136.004006,184.096697 136.004006,184.096697 C133.455082,174.050416 111.860004,175.192363 103.572436,171.766523 C95.2859653,168.341779 88.7518109,173.365467 88.7518109,173.365467 C88.7518109,173.365467 82.0585546,168.341779 73.7709865,171.766523 C65.4834185,175.192363 43.810435,174.050416 41.2604141,184.096697 C41.2604141,184.096697 25.9602885,174.735365 22.4545583,162.862189 C18.9477309,150.987917 17.0363124,138.885694 13.052179,141.626585 C11.0858978,142.977852 13.9277886,154.755683 14.2459926,166.628859 C14.5641966,178.502035 1.61768325,215.665712 13.7291855,227.995886 C25.8406877,240.32606 47.6343692,271.32191 88.7518109,271.32191 C129.869253,271.32191 151.503832,240.32606 163.615334,227.995886 C175.726837,215.665712 162.621221,178.502035 162.939425,166.628859" id="Fill-68" fill="#160D0C"></path>
                                    <path d="M45.3660136,114.280799 C45.3660136,114.280799 74.9886106,117.10498 76.5105034,147.255877 L80.2510462,134.264865 L76.6816752,117.124707 L53.083009,110.584268 L45.3660136,114.280799 Z" id="Fill-72" fill="#D7AF9B"></path>
                                    <path d="M125.129001,113.476067 C125.129001,113.476067 154.492645,130.105527 155.318879,157.203197 L161.55458,149.234777 L162.716573,136.410344 L162.914079,119.026892 L138.823842,110.361468 L125.129001,113.476067 Z" id="Fill-74" fill="#D7AF9B"></path>
                                    <path d="M48.719774,112.455109 C27.7753679,112.455109 15.6485041,116.023419 15.6485041,134.264974 C15.6485041,154.138352 29.8656389,169.125032 48.719774,169.125032 C66.5391974,169.125032 78.0526955,155.441399 78.0526955,134.264974 C78.0526955,115.604778 69.0036324,112.455109 48.719774,112.455109 M48.719774,171.193029 C28.6849924,171.193029 13.5757892,155.31756 13.5757892,134.264974 C13.5757892,112.230446 30.9376572,110.387112 48.719774,110.387112 C69.5489682,110.387112 80.1265077,114.080356 80.1265077,134.264974 C80.1265077,144.520576 77.2999785,153.761356 72.1703108,160.284261 C66.5567535,167.420879 58.448038,171.193029 48.719774,171.193029" id="Fill-76" fill="#042940"></path>
                                    <path d="M137.033231,105.189282 C126.973596,105.22764 111.736014,108.656767 102.21952,111.71657 C93.8639226,114.403761 88.9043294,117.415344 88.9043294,117.415344 C88.9043294,117.415344 85.0090737,115.465706 75.5869438,111.71657 C67.4321436,108.473749 51.762243,105.146542 40.7732328,105.189282 C30.714695,105.22764 6.42914702,107.987161 7.59662649,118.94415 C8.76410596,129.900042 16.2408025,127.95698 16.2408025,127.95698 C16.2408025,127.95698 15.1095324,114.513353 45.2412557,114.281019 C66.9701992,114.111151 73.4988673,115.863524 76.7127276,123.941536 C77.9625012,127.083533 77.9164165,138.178607 77.9164165,138.178607 C77.9164165,138.178607 79.948533,137.510097 82.8288277,134.329743 C85.7661797,131.08473 84.8137622,131.19213 88.7759505,131.165828 C92.8752957,131.13843 91.4664201,131.135142 94.9776366,134.329743 C98.1508984,137.216391 99.9130902,138.464642 99.9130902,138.464642 C99.9130902,138.464642 98.9134908,131.184458 100.353089,125.470342 C102.967848,115.093094 109.035669,114.424584 130.722917,113.114962 C158.768758,111.420672 161.570051,127.95698 161.570051,127.95698 C161.570051,127.95698 169.041261,129.900042 170.209838,118.94415 C171.37622,107.987161 148.25486,105.146542 137.033231,105.189282" id="Fill-78" fill="#042940"></path>
                                    <path d="M129.091409,112.455109 C108.805356,112.455109 99.7562924,115.604778 99.7562924,134.264974 C99.7562924,155.441399 111.270888,169.125032 129.091409,169.125032 C147.943349,169.125032 162.160484,154.138352 162.160484,134.264974 C162.160484,116.023419 150.034717,112.455109 129.091409,112.455109 M129.091409,171.193029 C119.362047,171.193029 111.252234,167.420879 105.638677,160.284261 C100.509009,153.761356 97.6835775,144.520576 97.6835775,134.264974 C97.6835775,114.080356 108.26002,110.387112 129.091409,110.387112 C146.872428,110.387112 164.233199,112.230446 164.233199,134.264974 C164.233199,155.31756 149.12619,171.193029 129.091409,171.193029" id="Fill-80" fill="#042940"></path>
                                </g>
                            </g>
                        </g>
                    </g>
                </g>
            </g>
        </g>
    </g>
</svg>