<?xml version="1.0" encoding="UTF-8" standalone="no"?>
<svg width="40px" height="28px" viewBox="0 0 40 28" version="1.1" xmlns="http://www.w3.org/2000/svg" xmlns:xlink="http://www.w3.org/1999/xlink">
    <!-- Generator: Sketch 39.1 (31720) - http://www.bohemiancoding.com/sketch -->
    <title>section_icon_messages</title>
    <desc>Created with Sketch.</desc>
    <defs></defs>
    <g id="myU" stroke="none" stroke-width="1" fill="none" fill-rule="evenodd">
        <g id="Large-Devices:-Desktops-landing-fixes-v1" transform="translate(-176.000000, -1471.000000)" fill="#9BAAC6">
            <g id="how-can-myU-help-you" transform="translate(176.000000, 1460.000000)">
                <g id="txt">
                    <g id="txt+icon">
                        <path d="M26.0929286,26.1747031 C29.187,28.2908061 37.1818571,34.568472 37.1818571,34.568472 C37.5002857,34.7873567 37.5230714,35.348516 37.3636429,35.682893 C37.2044286,36.0173425 36.7061429,36.2207944 36.3877143,36.0020546 C36.3877143,36.0020546 27.8774286,29.7693104 24.621,27.5080088 C24.4407857,27.3829525 24.2812143,27.533078 24.2812143,27.533078 L20.7105,30.4229939 C20.5152857,30.5855091 20.2578571,30.6750628 19.9861429,30.6750628 C19.7144286,30.6750628 19.4570714,30.5855091 19.2616429,30.4229939 L15.6499286,27.4992418 C15.6499286,27.4992418 15.5255714,27.389256 15.3840714,27.4887359 C12.1651429,29.7552542 3.69192857,36.0019821 3.69192857,36.0019821 C3.37357143,36.2207944 2.76785714,36.0173425 2.60857143,35.6827481 C2.44928571,35.348516 2.47207143,34.7872843 2.79042857,34.5683995 C2.79042857,34.5683995 10.7953571,28.3102963 13.84,26.2052064 C14.0139286,26.0849321 13.8314286,25.9081434 13.8314286,25.9081434 L2.54128571,15.5968689 C2.13078571,15.2555363 2.00792857,14.6442386 2.2615,14.2050925 C2.41207143,13.9438944 2.67735714,13.7879001 2.97071429,13.7879001 C3.17735714,13.7879001 3.38585714,13.866658 3.55778571,14.0096106 L19.6140714,28.2835606 C19.7089286,28.3623185 19.8445,28.407675 19.9861429,28.407675 C20.1277857,28.407675 20.2633571,28.3623185 20.3582857,28.2835606 L36.4145,14.0096106 C36.5864286,13.8665131 36.7948571,13.7879001 37.0016429,13.7879001 C37.2950714,13.7879001 37.5602143,13.9438944 37.7108571,14.2050925 C37.9643571,14.6442386 37.8415,15.2556812 37.4312143,15.5968689 L26.111,25.9402407 C26.1108571,25.9403856 25.9513571,26.0776142 26.0929286,26.1747031 M38.3327143,11 L1.66735714,11 C0.750285714,11 0,11.7612783 0,12.691158 L0,37.3086971 C0,38.2389391 0.750285714,39 1.66735714,39 L38.3327143,39 C39.2497143,39 40,38.2389391 40,37.3086971 L40,12.691158 C40,11.7611334 39.2497143,11 38.3327143,11" id="section_icon_messages"></path>
                    </g>
                </g>
            </g>
        </g>
    </g>
</svg>