<?xml version="1.0" encoding="UTF-8" standalone="no"?>
<svg width="40px" height="44px" viewBox="0 0 40 44" version="1.1" xmlns="http://www.w3.org/2000/svg" xmlns:xlink="http://www.w3.org/1999/xlink">
    <!-- Generator: Sketch 39.1 (31720) - http://www.bohemiancoding.com/sketch -->
    <title>section_icon_user_testimonials</title>
    <desc>Created with Sketch.</desc>
    <defs></defs>
    <g id="myU" stroke="none" stroke-width="1" fill="none" fill-rule="evenodd">
        <g id="Large-Devices:-Desktops-landing-fixes-v2" transform="translate(-408.000000, -2995.000000)" fill="#9BAAC6">
            <g id="users-testimonials" transform="translate(2.000000, 2992.000000)">
                <g id="Group-5" transform="translate(406.000000, 0.000000)">
                    <path d="M37.9337455,15.8891695 C37.7745523,15.4046266 37.3511763,15.0515385 36.8414878,14.9782635 L26.0426577,13.4259654 L21.2132941,3.7458799 C20.9854324,3.289169 20.5150058,3 20.0000719,3 C19.4852174,3 19.0147908,3.289169 18.7868497,3.7458799 L13.9573271,13.4259654 L3.15849696,14.9782635 C2.64880851,15.0515385 2.22551198,15.4046266 2.06623931,15.8891695 C1.9071256,16.3737909 2.03985282,16.9055851 2.40862787,17.2612677 L10.2227645,24.7960148 L8.37809447,35.4353583 C8.29106673,35.9375123 8.49961538,36.4450125 8.91623581,36.7443237 C9.33293572,37.043792 9.88530352,37.0832599 10.3411858,36.8462954 L20.0000719,31.8230259 L29.658799,36.8462954 C29.8567772,36.9492107 30.0729556,37 30.2882599,37 C30.568815,37 30.8479396,36.9138311 31.083749,36.7443237 C31.5003694,36.4450125 31.7089975,35.9375123 31.6218903,35.4353583 L29.7772998,24.7960148 L37.5914364,17.2612677 C37.9602114,16.9056637 38.0928592,16.3737909 37.9337455,15.8891695 Z M1.5,23 C0.671620748,23 0,23.5944722 0,24.3276961 L0,45.6722259 C0,46.4055278 0.671620748,47 1.5,47 C2.32837925,47 3,46.4055278 3,45.6722259 L3,24.3276961 C3,23.5944722 2.32837925,23 1.5,23 Z M38.5,23 C37.6716207,23 37,23.5944722 37,24.3276961 L37,45.6722259 C37,46.4055278 37.6716207,47 38.5,47 C39.3283793,47 40,46.4055278 40,45.6722259 L40,24.3276961 C40,23.5944722 39.3283793,23 38.5,23 Z M29.5,39 C28.6716207,39 28,39.6105286 28,40.3637356 L28,45.6362644 C28,46.3893913 28.6716207,47 29.5,47 C30.3283793,47 31,46.3893913 31,45.6362644 L31,40.3637356 C31,39.6105286 30.3283793,39 29.5,39 Z M19.5,35 C18.6716207,35 18,35.5966764 18,36.332794 L18,45.667206 C18,46.4032453 18.6716207,47 19.5,47 C20.3283793,47 21,46.4032453 21,45.667206 L21,36.332794 C21,35.5966764 20.3283793,35 19.5,35 Z M10.5,39 C9.67162075,39 9,39.6105286 9,40.3637356 L9,45.6362644 C9,46.3893913 9.67162075,47 10.5,47 C11.3283793,47 12,46.3893913 12,45.6362644 L12,40.3637356 C12,39.6105286 11.3283793,39 10.5,39 Z" id="section_icon_user_testimonials"></path>
                </g>
            </g>
        </g>
    </g>
</svg>