<?xml version="1.0" encoding="UTF-8" standalone="no"?>
<svg width="50px" height="41px" viewBox="0 0 50 41" version="1.1" xmlns="http://www.w3.org/2000/svg" xmlns:xlink="http://www.w3.org/1999/xlink">
    <!-- Generator: Sketch 39.1 (31720) - http://www.bohemiancoding.com/sketch -->
    <title>see_how_myU_can_halp_you</title>
    <desc>Created with Sketch.</desc>
    <defs></defs>
    <g id="myU" stroke="none" stroke-width="1" fill="none" fill-rule="evenodd">
        <g id="Large-Devices:-Desktops-landing-fixes-v1" transform="translate(-328.000000, -2264.000000)" fill="#9BAAC6">
            <g id="see-how-myU" transform="translate(31.000000, 2253.000000)">
                <g id="icon+title" transform="translate(297.000000, 0.000000)">
                    <path d="M18,31.8801205 C16.4347314,30.3931867 15.443787,28.3262848 15.371408,26.0326414 C15.155448,26.0169036 14.9418418,26 14.7217627,26 L8.85435941,26 C3.97201608,26 0,29.9344581 0,34.7700528 L0,41.8794728 L0.0182418516,41.9890548 L0.512537187,42.1435187 C4.25035143,43.299375 7.5862565,43.8321298 10.4837687,44 L10.4837687,41.8532431 C10.4849456,37.1447168 13.6590278,33.1595479 18,31.8801205 M12.0005957,25 C13.3700962,25 14.6442856,24.6002893 15.7236831,23.9194111 C16.0668028,21.6813888 17.2665305,19.7257255 18.9803421,18.3937537 C18.9874904,18.262701 19,18.1328398 19,18.0005957 C19,14.133946 15.8654583,11 12.0005957,11 C8.13335035,11 5,14.133946 5,18.0005957 C5,21.8654583 8.13335035,25 12.0005957,25 M40.7916086,26 L34.7357111,26 C34.6702254,28.3020416 33.6359185,30.3749838 32,31.8658741 C36.5136174,33.1410389 39.8160552,37.1177155 39.8160552,41.814834 L39.8160552,44 C45.7954507,43.7918336 49.2411003,42.1817418 49.4681582,42.0735883 L49.9485907,41.8421631 L50,41.8421631 L50,34.7488048 C50,29.9249257 45.8688926,26 40.7916086,26 M27.9877939,34 L22.0140027,34 C17.0436312,34 13,37.9204413 13,42.738676 L13,49.8205575 L13.0185708,49.931475 L13.5217782,50.0842044 C18.2651073,51.5209059 22.3860168,52 25.7778745,52 C32.40284,52 36.242792,50.1689895 36.4794193,50.0522648 L36.9496787,49.8217189 L36.9999994,49.8217189 L36.9999994,42.738676 C37.0017966,37.9204413 32.9581654,34 27.9877939,34 M25.0005956,33 C28.8665873,33 32,29.8655916 32,25.9997022 C32,22.1338127 28.8659917,19 25.0005956,19 C21.1351995,19 18,22.1344084 18,26.0002978 C18,29.8661873 21.1351995,33 25.0005956,33 M31,17.8942688 C33.2077977,19.2780071 34.7559377,21.6195805 35.0377969,24.3376165 C35.938197,24.7581585 36.937516,25 37.9970205,25 C41.8649868,25 45,21.8661873 45,18.0002978 C45,14.1338127 41.8649868,11 37.9970205,11 C34.1659998,11.0011913 31.0583979,14.0790112 31,17.8942688" id="see_how_myU_can_halp_you"></path>
                </g>
            </g>
        </g>
    </g>
</svg>