<?xml version="1.0" encoding="UTF-8" standalone="no"?>
<svg width="379px" height="264px" viewBox="0 0 379 264" version="1.1" xmlns="http://www.w3.org/2000/svg" xmlns:xlink="http://www.w3.org/1999/xlink">
    <!-- Generator: Sketch 39.1 (31720) - http://www.bohemiancoding.com/sketch -->
    <title>student</title>
    <desc>Created with Sketch.</desc>
    <defs>
        <rect id="path-1" x="0" y="0" width="359" height="244"></rect>
        <filter x="-50%" y="-50%" width="200%" height="200%" filterUnits="objectBoundingBox" id="filter-2">
            <feMorphology radius="1" operator="dilate" in="SourceAlpha" result="shadowSpreadOuter1"></feMorphology>
            <feOffset dx="0" dy="6" in="shadowSpreadOuter1" result="shadowOffsetOuter1"></feOffset>
            <feGaussianBlur stdDeviation="4" in="shadowOffsetOuter1" result="shadowBlurOuter1"></feGaussianBlur>
            <feColorMatrix values="0 0 0 0 0.462745098   0 0 0 0 0.525490196   0 0 0 0 0.57254902  0 0 0 0.2 0" type="matrix" in="shadowBlurOuter1"></feColorMatrix>
        </filter>
        <path d="M145.419355,72.4758842 C145.419355,112.503479 112.866366,144.951768 72.7099646,144.951768 C32.5535632,144.951768 -9.09494702e-13,112.503479 -9.09494702e-13,72.4758842 C-9.09494702e-13,32.4482898 32.5535632,0 72.7099646,0 C112.866366,0 145.419355,32.4482898 145.419355,72.4758842" id="path-3"></path>
    </defs>
    <g id="myU" stroke="none" stroke-width="1" fill="none" fill-rule="evenodd">
        <g id="Large-Devices:-Desktops-landing-fixes-v1" transform="translate(-21.000000, -2341.000000)">
            <g id="see-how-myU" transform="translate(31.000000, 2253.000000)">
                <g id="user-cards" transform="translate(0.000000, 92.000000)">
                    <g id="student">
                        <g id="bg">
                            <use fill="black" fill-opacity="1" filter="url(#filter-2)" xlink:href="#path-1"></use>
                            <use fill="#FFFFFF" fill-rule="evenodd" xlink:href="#path-1"></use>
                        </g>
                        <rect id="status-person" fill="#F86833" x="0" y="0" width="359" height="7"></rect>
                        <text id="STUDENT" font-family="ProximaNova-Regular, Proxima Nova" font-size="24" font-weight="normal" letter-spacing="1.37142861" fill="#000000">
                            <tspan x="121.924" y="217">STUDENT</tspan>
                        </text>
                        <g transform="translate(99.000000, 18.000000)">
                            <ellipse id="Oval-3" fill="#F86833" opacity="0.4" cx="80.5" cy="80.7571779" rx="80.5" ry="80.2411576"></ellipse>
                            <g transform="translate(80.209677, 77.000000) scale(-1, 1) translate(-80.209677, -77.000000) translate(7.209677, 0.000000)">
                                <g id="body" transform="translate(0.000000, 8.256325)">
                                    <mask id="mask-4" fill="white">
                                        <use xlink:href="#path-3"></use>
                                    </mask>
                                    <use id="Fill-1" fill="#ED6931" xlink:href="#path-3"></use>
                                    <path d="M122.917067,153.749106 C122.917067,153.749106 115.372411,130.348909 110.132629,126.356055 C104.892846,122.363201 82.8329086,114.948145 82.8329086,114.948145 L71.7081429,114.948145 L60.5827938,114.948145 C60.5827938,114.948145 38.5222725,122.363201 33.2830737,126.356055 C28.0432916,130.348909 20.4986353,153.749106 20.4986353,153.749106 L42.2750579,162.763476 C42.2750579,162.763476 36.9116024,176.304187 51.2921268,182.183398 C51.2921268,182.183398 52.7342045,196.469731 48.4196388,214.494469 C48.4196388,214.494469 54.823817,220.769363 71.7081429,220.769363 C88.591302,220.769363 96.6849045,216.264751 96.6849045,216.264751 C92.3703388,198.240013 92.1235755,182.183398 92.1235755,182.183398 C106.5041,176.304187 101.140644,162.763476 101.140644,162.763476 L122.917067,153.749106 Z" id="Fill-4" fill="#24A587" mask="url(#mask-4)"></path>
                                    <path d="M84.3080463,114.947916 C73.5000477,107.805035 77.8315309,91.7981663 77.8315309,91.7981663 L73.1826973,91.7981663 L68.5338636,91.7981663 C68.5338636,91.7981663 72.8653468,107.805035 62.0579315,114.947916 C51.2499329,122.090797 73.1826973,121.671098 73.1826973,121.671098 C73.1826973,121.671098 95.116045,122.090797 84.3080463,114.947916" id="Fill-7" fill="#FFCBBA" mask="url(#mask-4)"></path>
                                    <path d="M69.3708753,98.0008995 L76.9954526,98.0008995 C76.9954526,98.0008995 77.3028858,103.503296 77.4364763,104.124839 C77.5706502,104.74581 66.8495729,109.849665 66.8495729,109.849665 C66.8495729,109.849665 70.002076,103.310029 69.3708753,98.0008995" id="Fill-9" fill="#E8A49E" mask="url(#mask-4)"></path>
                                    <path d="M72.809183,120.989151 C72.809183,120.989151 52.2663854,121.839527 62.4708455,114.621384 C62.5286939,114.580348 63.0947928,114.150071 63.1515393,114.108458 C58.0900786,115.250507 54.0585841,117.190797 54.0585841,119.443685 C54.0585841,122.981379 62.3138281,125.849217 72.4973525,125.849217 C82.6808769,125.849217 90.9355699,122.981379 90.9355699,119.443685 C90.9355699,117.329507 87.9864027,115.455183 83.4400684,114.288282 C93.3337998,121.409327 72.809183,120.989151 72.809183,120.989151 Z" id="Fill-12" fill="#6E5F8A" mask="url(#mask-4)"></path>
                                    <path d="M72.6772866,138.431426 L70.6151286,138.462246 L70.6151286,135.019931 L79.6820503,135.019931 L79.6820503,131.097385 L65.6555224,131.097385 L65.6243549,142.817953 C67.029161,142.725493 70.3380208,142.537772 71.5246542,142.537772 C73.8967875,142.537772 75.3015937,143.524012 75.3015937,145.375454 C75.3015937,145.872496 75.1757902,146.188541 75.0052187,146.577994 C76.8310701,146.515234 78.6909224,146.395876 80.4822061,146.208715 C80.5473746,145.791244 80.6856452,145.43149 80.6856452,144.980958 C80.6856452,141.123974 77.609692,138.431426 72.6772866,138.431426" id="Fill-14" fill="#F2F8F4" mask="url(#mask-4)" transform="translate(73.155000, 138.837690) scale(-1, 1) translate(-73.155000, -138.837690) "></path>
                                </g>
                                <g id="head" transform="translate(25.448387, 0.000000)">
                                    <g id="Group-8">
                                        <path d="M21.9889161,75.5077625 C21.9889161,81.2032249 16.5993677,85.8205989 9.95156129,85.8205989 C3.30317419,85.8205989 0.282077419,81.2032249 0.282077419,75.5077625 C0.282077419,69.8123001 3.30317419,65.1949261 9.95156129,65.1949261 C16.5993677,65.1949261 21.9889161,69.8123001 21.9889161,75.5077625" id="Fill-16" fill="#FABCA5"></path>
                                        <path d="M3.80607097,75.7862541 C3.80607097,78.0896821 5.51839355,79.9572001 7.63078065,79.9572001 C9.74374839,79.9572001 11.456071,78.0896821 11.456071,75.7862541 C11.456071,73.4828261 9.74374839,71.6153081 7.63078065,71.6153081 C5.51839355,71.6153081 3.80607097,73.4828261 3.80607097,75.7862541" id="Fill-18" fill="#BB8D7C"></path>
                                        <path d="M71.3323161,75.5077625 C71.3323161,81.2032249 76.7218645,85.8205989 83.369671,85.8205989 C90.0180581,85.8205989 93.0391548,81.2032249 93.0391548,75.5077625 C93.0391548,69.8123001 90.0180581,65.1949261 83.369671,65.1949261 C76.7218645,65.1949261 71.3323161,69.8123001 71.3323161,75.5077625" id="Fill-20" fill="#FABCA5"></path>
                                        <path d="M89.5151613,75.7862541 C89.5151613,78.0896821 87.8028387,79.9572001 85.6904516,79.9572001 C83.5774839,79.9572001 81.8651613,78.0896821 81.8651613,75.7862541 C81.8651613,73.4828261 83.5774839,71.6153081 85.6904516,71.6153081 C87.8028387,71.6153081 89.5151613,73.4828261 89.5151613,75.7862541" id="Fill-22" fill="#BB8D7C"></path>
                                        <path d="M85.7884645,67.3980247 C85.7884645,93.9528919 68.1914323,115.479601 46.4851742,115.479601 C24.7783355,115.479601 7.18130323,93.9528919 7.18130323,67.3980247 C7.18130323,40.8431575 24.7783355,19.3164482 46.4851742,19.3164482 C68.1914323,19.3164482 85.7884645,40.8431575 85.7884645,67.3980247" id="Fill-24" fill="#FFD8CB"></path>
                                        <path d="M46.6688323,101.83591 C52.1123806,101.83591 56.5247032,98.445044 56.5247032,94.3547355 L36.8135419,94.3547355 C36.8135419,98.445044 41.2258645,101.83591 46.6688323,101.83591" id="Fill-26" fill="#FFFFFF"></path>
                                        <path d="M51.8745484,109.626896 L40.6396452,109.626896 C40.5113226,109.626896 40.4073871,109.522301 40.4073871,109.393164 L40.4073871,108.062645 C40.4073871,107.933508 40.5113226,107.828913 40.6396452,107.828913 L51.8745484,107.828913 C52.002871,107.828913 52.1068065,107.933508 52.1068065,108.062645 L52.1068065,109.393164 C52.1068065,109.522301 52.002871,109.626896 51.8745484,109.626896" id="Fill-28" fill="#FCBBA5"></path>
                                        <path d="M76.4353161,59.1953784 C76.4353161,59.1953784 72.5316387,51.354257 66.3123484,50.3421978 C60.0930581,49.3295543 55.5611226,51.3209502 56.4733161,54.263635 C57.3860903,57.2069042 65.0837032,50.1505377 76.4353161,59.1953784" id="Fill-30" fill="#795E1C"></path>
                                        <path d="M90.749729,43.2068884 C90.8763097,44.6057739 90.749729,47.6594813 90.749729,49.0647945 C90.749729,57.7876695 86.2143097,70.4810655 86.2143097,70.4810655 C86.2143097,70.4810655 81.5796,66.0156173 80.8218581,57.5983467 C79.7017935,45.1567969 76.9954065,44.6028522 62.8648258,41.8506589 C48.7348258,39.0984656 39.5780516,31.7505186 39.5780516,31.7505186 L46.8448258,43.2068884 C46.8448258,43.2068884 36.5720516,36.8207481 24.9150194,42.7201417 C14.2630839,48.1111683 7.29592258,66.4123772 7.29592258,66.4123772 C7.29592258,66.4123772 4.06289032,48.535976 9.48030968,38.6941094 C11.3633419,35.2728585 14.5092774,31.246242 17.9246323,29.1987504 C18.5244387,28.8393876 20.5932774,27.7355886 20.5932774,27.7355886 L4.06463226,29.8870909 C4.06463226,29.8870909 24.1352129,15.3945435 37.9272774,15.2174916 C39.1193419,15.2174916 24.167729,10.0479259 19.0592129,10.0502633 C19.0592129,10.0502633 25.8382452,4.25137445 36.5650839,4.07432253 C47.2925032,3.8972706 60.403471,10.6188161 61.7656645,12.5646343 C63.1278581,14.5098682 56.1432774,0.984970945 52.1252129,0.0652358601 C52.1252129,0.0652358601 81.3467613,4.9584135 84.2412774,34.143349 C84.2412774,34.143349 90.1011484,36.0482641 90.749729,43.2068884" id="Fill-32" fill="#F2BC38"></path>
                                        <path d="M16.3906839,59.1953784 C16.3906839,59.1953784 20.2943613,51.354257 26.5136516,50.3421978 C32.7329419,49.3295543 37.2648774,51.3209502 36.3526839,54.263635 C35.4399097,57.2069042 27.7422968,50.1505377 16.3906839,59.1953784" id="Fill-34" fill="#795E1C"></path>
                                        <path d="M48.3145548,64.8679351 C47.697329,62.8934848 45.4061032,62.8934848 44.7882968,64.8679351 C43.0179097,70.5289221 40.5960387,78.8643865 40.9246839,81.1193152 C41.1859742,82.910286 42.6492,84.1858779 44.0177806,85.0051083 C45.6133935,85.9604875 47.4894581,85.9604875 49.0856516,85.0051083 C50.4542323,84.1858779 51.9168774,82.910286 52.1781677,81.1193152 C52.5073935,78.8643865 50.0849419,70.5289221 48.3145548,64.8679351" id="Fill-36" fill="#FABCA5"></path>
                                        <path d="M64.4898774,64.3288325 C64.4898774,66.2343319 62.9546516,67.7787155 61.0605871,67.7787155 C59.1665226,67.7787155 57.6307161,66.2343319 57.6307161,64.3288325 C57.6307161,62.423333 59.1665226,60.8789494 61.0605871,60.8789494 C62.9546516,60.8789494 64.4898774,62.423333 64.4898774,64.3288325" id="Fill-38" fill="#2B1918"></path>
                                        <path d="M33.405329,64.3288325 C33.405329,66.2343319 31.8701032,67.7787155 29.9760387,67.7787155 C28.0819742,67.7787155 26.5461677,66.2343319 26.5461677,64.3288325 C26.5461677,62.423333 28.0819742,60.8789494 29.9760387,60.8789494 C31.8701032,60.8789494 33.405329,62.423333 33.405329,64.3288325" id="Fill-40" fill="#2B1918"></path>
                                    </g>
                                </g>
                            </g>
                        </g>
                    </g>
                </g>
            </g>
        </g>
    </g>
</svg>