<?xml version="1.0" encoding="UTF-8" standalone="no"?>
<svg width="31px" height="23px" viewBox="0 0 31 23" version="1.1" xmlns="http://www.w3.org/2000/svg" xmlns:xlink="http://www.w3.org/1999/xlink">
    <!-- Generator: Sketch 39.1 (31720) - http://www.bohemiancoding.com/sketch -->
    <title>youtube</title>
    <desc>Created with Sketch.</desc>
    <defs></defs>
    <g id="myU" stroke="none" stroke-width="1" fill="none" fill-rule="evenodd">
        <g id="Large-Devices:-Desktops-landing-fixes-v2" transform="translate(-414.000000, -4332.000000)" fill="#FFFFFF">
            <g id="footer" transform="translate(0.000000, 4302.000000)">
                <g id="footer-" transform="translate(123.000000, 0.000000)">
                    <g id="social" transform="translate(30.000000, 28.000000)">
                        <g id="youtube" transform="translate(261.000000, 2.000000)">
                            <g id="Layer_1">
                                <path d="M30.6792832,4.99247436 C30.6792832,4.99247436 30.3585664,2.75386667 29.45,1.76474872 C28.2741191,0.46324359 26.9379102,0.46324359 26.35,0.411169231 C22.0207168,0.0988410256 15.5,0.0467666667 15.5,0.0467666667 C15.5,0.0467666667 8.9792832,0.0988410256 4.65,0.411169231 C4.06208984,0.46324359 2.72588086,0.515317949 1.55,1.76474872 C0.587910156,2.75392564 0.320716797,4.99247436 0.320716797,4.99247436 C0.320716797,4.99247436 0,7.64755897 0,10.3026436 L0,12.7494897 C0,15.4045744 0.320716797,18.0075846 0.320716797,18.0075846 C0.320716797,18.0075846 0.641433594,20.2461923 1.55,21.2353103 C2.72588086,22.5368154 4.27588086,22.484741 4.9707168,22.6409641 C7.4292832,22.901159 15.5,22.9532333 15.5,22.9532333 C15.5,22.9532333 22.0207168,22.9532333 26.35,22.5888308 C26.9379102,22.5367564 28.2741191,22.4846821 29.45,21.2352513 C30.358627,20.2461333 30.6792832,18.0075256 30.6792832,18.0075256 C30.6792832,18.0075256 31,15.352441 31,12.7494308 L31,10.3025846 C31,7.64755897 30.6792832,4.99247436 30.6792832,4.99247436 Z M11.758627,6.24190513 L11.758627,17.5389744 L21.913791,12.0206256 L11.758627,6.24190513 Z" id="Combined-Shape"></path>
                            </g>
                        </g>
                    </g>
                </g>
            </g>
        </g>
    </g>
</svg>